<?xml version="1.0" encoding="utf-8"?>
<!-- Generator: Adobe Illustrator 22.1.0, SVG Export Plug-In . SVG Version: 6.00 Build 0)  -->
<svg version="1.1" id="Layer_1" xmlns="http://www.w3.org/2000/svg" xmlns:xlink="http://www.w3.org/1999/xlink" x="0px" y="0px"
	 viewBox="0 0 512 512" style="enable-background:new 0 0 512 512;" xml:space="preserve">
<g id="Layer_2_1_">
</g>
<g id="Layer_1_1_">
	<path d="M292.7,497L462,327c20.5-20.5,20.5-53.2,0-73c-20.5-20.5-53.2-20.5-73,0l-81.2,81.2V51.9C307.7,23.2,284.5,0,255.8,0
		s-51.9,23.2-51.9,51.9v283.3L122.7,254c-20.5-20.5-53.2-20.5-73,0c-10.2,10.2-15,23.2-15,36.9c0,13,4.8,26.6,15,36.9L219,497
		c9.6,9.6,23.2,15,36.9,15C269.5,512,282.5,506.5,292.7,497z"/>
</g>
</svg>
