<?xml version="1.0" encoding="utf-8"?>
<!-- Generator: Adobe Illustrator 22.1.0, SVG Export Plug-In . SVG Version: 6.00 Build 0)  -->
<svg version="1.1" id="Layer_1" xmlns="http://www.w3.org/2000/svg" xmlns:xlink="http://www.w3.org/1999/xlink" x="0px" y="0px"
	 viewBox="0 0 512 512" style="enable-background:new 0 0 512 512;" xml:space="preserve">
<g id="Layer_2_1_">
</g>
<g id="Layer_1_1_">
	<path d="M219.3,15L50,185c-20.5,20.5-20.5,53.2,0,73c20.5,20.5,53.2,20.5,73,0l81.2-81.2v283.3c0.1,28.7,23.3,51.9,52,51.9
		s51.9-23.2,51.9-51.9V176.8l81.2,81.2c20.5,20.5,53.2,20.5,73,0c10.2-10.2,15-23.2,15-36.9c0-13-4.8-26.6-15-36.9L293,15
		c-9.6-9.6-23.2-15-36.9-15C242.5,0,229.5,5.5,219.3,15z"/>
</g>
</svg>
