<?xml version="1.0" encoding="utf-8"?>
<!-- Generator: Adobe Illustrator 22.1.0, SVG Export Plug-In . SVG Version: 6.00 Build 0)  -->
<svg version="1.1" xmlns="http://www.w3.org/2000/svg" xmlns:xlink="http://www.w3.org/1999/xlink" x="0px" y="0px"
	 viewBox="0 0 512 512" style="enable-background:new 0 0 512 512;" xml:space="preserve">
<g id="Layer_2">
</g>
<g id="Layer_1">
	<path d="M497,219.3L327,50c-20.5-20.5-53.2-20.5-73,0c-20.5,20.5-20.5,53.2,0,73l81.2,81.2H51.9C23.2,204.3,0,227.5,0,256.2
		c0,28.7,23.2,51.9,51.9,51.9h283.3L254,389.3c-20.5,20.5-20.5,53.2,0,73c10.2,10.2,23.2,15,36.9,15c13,0,26.6-4.8,36.9-15L497,293
		c9.6-9.6,15-23.2,15-36.9C512,242.5,506.5,229.5,497,219.3z"/>
</g>
</svg>
