<?xml version="1.0" encoding="utf-8"?>
<!-- Generator: Adobe Illustrator 22.1.0, SVG Export Plug-In . SVG Version: 6.00 Build 0)  -->
<svg version="1.1" id="Layer_1" xmlns="http://www.w3.org/2000/svg" xmlns:xlink="http://www.w3.org/1999/xlink" x="0px" y="0px"
	 viewBox="0 0 512 512" style="enable-background:new 0 0 512 512;" xml:space="preserve">
<g id="Layer_2_1_">
</g>
<g id="Layer_1_1_">
	<path d="M15,292.6l170,169.3c20.5,20.5,53.2,20.5,73,0c20.5-20.5,20.5-53.2,0-73l-81.2-81.2h283.3c28.7-0.1,51.9-23.3,51.9-52
		s-23.2-51.9-51.9-51.9H176.8l81.2-81.2c20.5-20.5,20.5-53.2,0-73c-10.2-10.2-23.2-15-36.9-15c-13,0-26.6,4.8-36.9,15L15,218.9
		c-9.6,9.6-15,23.2-15,36.9C0,269.4,5.5,282.4,15,292.6z"/>
</g>
</svg>
