<?xml version="1.0" encoding="utf-8"?>
<!-- Generator: Adobe Illustrator 22.1.0, SVG Export Plug-In . SVG Version: 6.00 Build 0)  -->
<svg version="1.1" id="Layer_1" xmlns="http://www.w3.org/2000/svg" xmlns:xlink="http://www.w3.org/1999/xlink" x="0px" y="0px"
	 viewBox="0 0 512 512" style="enable-background:new 0 0 512 512;" xml:space="preserve">
<title>150all</title>
<path d="M496.2,187.4h-53.6L345.9,64.9c-5.5-6.9-15.5-8.1-22.5-2.6s-8.1,15.5-2.6,22.5l0,0l81,102.7H116.7l80.8-102.7
	c5.5-6.9,4.3-17-2.6-22.5c-6.9-5.5-17-4.3-22.5,2.6l0,0L75.7,187.4H16c-8.8,0-16,7.2-16,16c0,8.8,7.2,16,16,16h23.8l29.8,180.5
	c5.2,30.7,31.8,53.2,62.9,53.3h247.1c31.2-0.1,57.7-22.6,62.9-53.3l29.6-180.2H496c8.8,0,16-7.2,16-16c0-8.8-7.2-16-16-16
	L496.2,187.4z M411.2,394.6c-2.6,15.4-15.9,26.7-31.5,26.6H132.5c-15.6,0-28.9-11.3-31.5-26.6l-28.8-175h367.7L411.2,394.6z"/>
</svg>
