<?xml version="1.0" encoding="utf-8"?>
<!-- Generator: Adobe Illustrator 22.1.0, SVG Export Plug-In . SVG Version: 6.00 Build 0)  -->
<svg version="1.1" id="Layer_1" xmlns="http://www.w3.org/2000/svg" xmlns:xlink="http://www.w3.org/1999/xlink" x="0px" y="0px"
	 viewBox="0 0 512 512" style="enable-background:new 0 0 512 512;" xml:space="preserve">
<title>126all</title>
<g>
	<path d="M429.2,57.3h-43.8V22.9c0-12.7-10.3-22.9-22.9-22.9c-12.7,0-22.9,10.3-22.9,22.9v34.4H172.4V22.9
		c0-12.7-10.3-22.9-22.9-22.9s-22.9,10.3-22.9,22.9v34.4H82.8c-38,0-68.8,30.8-68.8,68.8v305.6c0,44.3,35.9,80.3,80.3,80.3h323.6
		c44.3,0,80.3-35.9,80.3-80.3V126.1C498,88.1,467.2,57.3,429.2,57.3z M417.8,466.1H94.2c-19,0-34.4-15.4-34.4-34.4V204.4h392.4
		v227.3C452.2,450.7,436.8,466.1,417.8,466.1z M452.2,158.5H59.8v-32.3c0-12.7,10.3-22.9,22.9-22.9h43.8v12.5
		c0,12.7,10.3,22.9,22.9,22.9s22.9-10.3,22.9-22.9v-12.5h167.2v12.5c0,12.7,10.3,22.9,22.9,22.9c12.7,0,22.9-10.3,22.9-22.9v-12.5
		h43.8c12.7,0,22.9,10.3,22.9,22.9v32.4V158.5z"/>
	<path d="M137.4,249.1L137.4,249.1c-18.6,0-33.8,15.1-33.8,33.8c0,18.6,15.1,33.8,33.8,33.8c18.6,0,33.8-15.1,33.8-33.8
		C171.1,264.3,156,249.1,137.4,249.1L137.4,249.1z"/>
	<path d="M256,249.1L256,249.1c-18.6,0-33.8,15.1-33.8,33.8s15.1,33.8,33.8,33.8s33.8-15.1,33.8-33.8l0,0
		C289.7,264.3,274.6,249.2,256,249.1z"/>
	<path d="M374.7,249.1L374.7,249.1c-18.6,0-33.8,15.1-33.8,33.8s15.1,33.8,33.8,33.8c18.6,0,33.8-15.1,33.8-33.8l0,0
		C408.4,264.3,393.3,249.1,374.7,249.1L374.7,249.1z"/>
	<path d="M137.4,350L137.4,350c-18.6,0-33.8,15.1-33.8,33.8c0,18.6,15.1,33.8,33.8,33.8c18.6,0,33.8-15.1,33.8-33.8
		C171.1,365.2,156,350,137.4,350L137.4,350z"/>
	<path d="M256,350L256,350c-18.6,0-33.8,15.1-33.8,33.8c0,18.6,15.1,33.8,33.8,33.8s33.8-15.1,33.8-33.8l0,0
		C289.7,365.2,274.6,350.1,256,350z"/>
	<path d="M374.7,350L374.7,350c-18.6,0-33.8,15.1-33.8,33.8c0,18.6,15.1,33.8,33.8,33.8c18.6,0,33.8-15.1,33.8-33.8l0,0
		C408.4,365.2,393.3,350,374.7,350L374.7,350z"/>
</g>
</svg>
