<?xml version="1.0" encoding="utf-8"?>
<!-- Generator: Adobe Illustrator 22.1.0, SVG Export Plug-In . SVG Version: 6.00 Build 0)  -->
<svg version="1.1" id="Layer_1" xmlns="http://www.w3.org/2000/svg" xmlns:xlink="http://www.w3.org/1999/xlink" x="0px" y="0px"
	 viewBox="0 0 512 512" style="enable-background:new 0 0 512 512;" xml:space="preserve">
<g>
	<path d="M256,0C114.6,0,0,114.6,0,256s114.6,256,256,256s256-114.6,256-256S397.4,0,256,0z M256,438c-100.5,0-182-81.5-182-182
		S155.5,74,256,74s182,81.5,182,182S356.5,438,256,438z"/>
	<path d="M284,240v-96.3c0-17.3-14.3-31.7-32-31.7c-17.8,0-32,14.2-32,31.7v128.6
		c0,8.6,3.6,16.6,9.4,22.3c5.9,5.9,13.8,9.4,22.6,9.4h96c17.8,0,32-14.3,32-32c0-17.8-14.3-32-32-32H284z"/>
</g>
</svg>
