<?xml version="1.0" encoding="utf-8"?>
<!-- Generator: Adobe Illustrator 22.1.0, SVG Export Plug-In . SVG Version: 6.00 Build 0)  -->
<svg version="1.1" id="Layer_1" xmlns="http://www.w3.org/2000/svg" xmlns:xlink="http://www.w3.org/1999/xlink" x="0px" y="0px"
	 viewBox="0 0 512 512" style="enable-background:new 0 0 512 512;" xml:space="preserve">
<path d="M256,512C114.7,512,0,397.3,0,256S114.7,0,256,0s256,114.7,256,256S397.3,512,256,512z M284.4,59v100.5h-56.8V59
	C140.2,71.5,71.5,140.2,59,227.6h100.5v56.8H59c12.5,87.4,81.2,156.1,168.6,168.6V352.5h56.8V453c87.4-12.5,156.1-81.2,168.6-168.6
	H352.5v-56.8h99.9C440.5,140.2,371.8,71.5,284.4,59z"/>
</svg>
