<?xml version="1.0" encoding="utf-8"?>
<!-- Generator: Adobe Illustrator 22.1.0, SVG Export Plug-In . SVG Version: 6.00 Build 0)  -->
<svg version="1.1" id="Layer_1" xmlns="http://www.w3.org/2000/svg" xmlns:xlink="http://www.w3.org/1999/xlink" x="0px" y="0px"
	 viewBox="0 0 512 512" style="enable-background:new 0 0 512 512;" xml:space="preserve">
<path d="M454.2,86.8H57.8C25.9,86.8,0,112.7,0,144.6v222.8c0,31.9,25.9,57.8,57.8,57.8h396.4c31.9,0,57.8-25.9,57.8-57.8V144.6
	C512,112.7,486.1,86.8,454.2,86.8z M370.5,236.7l106.8-74.5v187.7L370.5,236.7z M454.2,121.5c5.3,0,10.1,1.8,13.9,4.8L285,254.1
	c-3.7,2.7-16.8,10.5-28.4,10.5c-15.9,0-26.9-8.8-26.9-8.8L42.9,127.1c4-3.5,9.2-5.6,14.9-5.6L454.2,121.5L454.2,121.5z M34.7,350.3
	V163.6l106.8,73.6L34.7,350.3z M57.8,390.5c-3.9,0-7.5-1.1-10.7-2.8l123.3-130.7L208,283c4.4,3.5,22.3,16.3,48.6,16.3
	c25,0,46.7-15.6,48.7-17.1l36.5-25.4l123.5,130.8c-3.3,1.8-7,2.9-11,2.9L57.8,390.5L57.8,390.5z"/>
</svg>
