<?xml version="1.0" encoding="utf-8"?>
<!-- Generator: Adobe Illustrator 22.1.0, SVG Export Plug-In . SVG Version: 6.00 Build 0)  -->
<svg version="1.1" id="Layer_1" xmlns="http://www.w3.org/2000/svg" xmlns:xlink="http://www.w3.org/1999/xlink" x="0px" y="0px"
	 viewBox="0 0 512 512" style="enable-background:new 0 0 512 512;" xml:space="preserve">
<g>
	<path d="m432 244l-85-86l-1 1c-24-22-55-36-90-36c-40 0-75 17-99 45l-80 79l0 0c-2 3-4 6-4 9c0 5 3 8 6 11l86 87l0-1c24 22 56 36 91 36c39 0 74-17 98-44l1 0l79-79c0-1 1-1 1-1l0 0c2-3 3-6 3-9c1-5-2-9-6-12z m-176 102c-50 0-90-40-90-90c0-50 40-90 90-90c49 0 89 40 89 90c0 50-40 90-89 90z m44-90c0 24-20 44-44 44c-24 0-44-20-44-44c0-24 20-43 44-43c24 0 44 19 44 43z"/>
</g>
</svg>
