<?xml version="1.0" encoding="utf-8"?>
<!-- Generator: Adobe Illustrator 22.1.0, SVG Export Plug-In . SVG Version: 6.00 Build 0)  -->
<svg version="1.1"
	 id="Layer_1" xmlns:cc="http://creativecommons.org/ns#" xmlns:dc="http://purl.org/dc/elements/1.1/" xmlns:inkscape="http://www.inkscape.org/namespaces/inkscape" xmlns:rdf="http://www.w3.org/1999/02/22-rdf-syntax-ns#" xmlns:sodipodi="http://sodipodi.sourceforge.net/DTD/sodipodi-0.dtd" xmlns:svg="http://www.w3.org/2000/svg"
	 xmlns="http://www.w3.org/2000/svg" xmlns:xlink="http://www.w3.org/1999/xlink" x="0px" y="0px" viewBox="0 0 512 512"
	 style="enable-background:new 0 0 512 512;" xml:space="preserve">
<g transform="translate(0,-952.36218)">
	<path d="M65.8,952.4c-36.1,0-65.8,29.7-65.8,65.8v380.3c0,36.1,29.7,65.8,65.8,65.8h380.3c36.1,0,65.8-29.7,65.8-65.8v-380.3
		c0-36.1-29.7-65.8-65.8-65.8H65.8z M65.8,996.2h380.3c12.5,0,21.9,9.4,21.9,21.9v168.2h-89.8c-10.5-58-61.4-102.4-122.3-102.4
		s-111.8,44.4-122.3,102.4H43.9v-168.2C43.9,1005.7,53.3,996.2,65.8,996.2z M402.3,1040.1c-16.2,0-29.3,13.1-29.3,29.3
		c0,16.2,13.1,29.3,29.3,29.3c16.2,0,29.3-13.1,29.3-29.3C431.5,1053.2,418.4,1040.1,402.3,1040.1z M256,1127.9
		c44.7,0,80.5,35.8,80.5,80.5c0,44.7-35.8,80.5-80.5,80.5s-80.5-35.8-80.5-80.5C175.5,1163.7,211.3,1127.9,256,1127.9z M43.9,1230.3
		h89.8c10.4,58.1,61.3,102.4,122.3,102.4s111.9-44.3,122.3-102.4h89.8v168.2c0,12.5-9.4,21.9-21.9,21.9H65.8
		c-12.5,0-21.9-9.4-21.9-21.9V1230.3z"/>
</g>
</svg>
