<?xml version="1.0" encoding="utf-8"?>
<!-- Generator: Adobe Illustrator 22.1.0, SVG Export Plug-In . SVG Version: 6.00 Build 0)  -->
<svg version="1.1" id="Layer_2" xmlns="http://www.w3.org/2000/svg" xmlns:xlink="http://www.w3.org/1999/xlink" x="0px" y="0px"
	 viewBox="0 0 1024 288.9" style="enable-background:new 0 0 1024 288.9;" xml:space="preserve">
<style type="text/css">
	.st0{fill:#FFFFFF;}
	.st1{fill:#E1007A;}
</style>
<g>
	<path class="st0" d="M918.8,125.8V63h16c15.4,0,28.8,14.7,28.8,31.4c0,16.7-13.5,31.4-29,31.4H918.8z M893.8,158.6h40.8
		c33.5,0,62-29.3,62-64.2c0-16.3-6.4-32.5-17.7-44.6c-11.8-12.7-27.4-19.6-44.1-19.6h-41c-5,0-7.8,2.8-7.8,7.8v112.8
		C886,155.8,888.7,158.6,893.8,158.6"/>
	<path class="st1" d="M792.4,128.9c-19.1,0-34.7-15.4-34.7-34.5c0-19.1,15.6-34.7,34.7-34.7c19.1,0,34.5,15.6,34.5,34.7
		C827,113.5,811.5,128.9,792.4,128.9 M792.4,161.7c37.1,0,67.5-30.2,67.5-67.3c0-37.3-30.4-67.5-67.5-67.5
		c-37.3,0-67.5,30.2-67.5,67.5C724.9,131.5,755.1,161.7,792.4,161.7"/>
	<path class="st1" d="M636.6,128.9c-19.1,0-34.7-15.4-34.7-34.5c0-19.1,15.6-34.7,34.7-34.7c19.1,0,34.5,15.6,34.5,34.7
		C671.1,113.5,655.7,128.9,636.6,128.9 M636.6,161.7c37.1,0,67.5-30.2,67.5-67.3c0-37.3-30.4-67.5-67.5-67.5
		c-37.3,0-67.5,30.2-67.5,67.5C569.1,131.5,599.3,161.7,636.6,161.7"/>
	<path class="st0" d="M473.6,158.6h17.2c5,0,7.8-2.8,7.8-7.8v-41.3h34c5,0,7.8-2.8,7.8-7.8V86.9c0-5-2.8-7.8-7.8-7.8h-34V63h47
		c5,0,7.8-2.8,7.8-7.8V38c0-5-2.8-7.8-7.8-7.8h-72c-5,0-7.8,2.8-7.8,7.8v112.8C465.8,155.8,468.6,158.6,473.6,158.6"/>
	<path class="st0" d="M372.3,128.9c-19.1,0-34.7-15.4-34.7-34.5c0-19.1,15.6-34.7,34.7-34.7c19.1,0,34.5,15.6,34.5,34.7
		C406.8,113.5,391.4,128.9,372.3,128.9 M372.3,161.7c37.1,0,67.5-30.2,67.5-67.3c0-37.3-30.4-67.5-67.5-67.5
		c-37.3,0-67.5,30.2-67.5,67.5C304.8,131.5,335,161.7,372.3,161.7"/>
	<path class="st0" d="M211.3,158.6h71c5,0,7.8-2.8,7.8-7.8v-17.2c0-5-2.8-7.8-7.8-7.8h-46V38c0-5-2.8-7.8-7.8-7.8h-17.2
		c-5,0-7.8,2.8-7.8,7.8v112.8C203.5,155.8,206.2,158.6,211.3,158.6"/>
	<path class="st0" d="M147.2,158.6h17.2c5,0,7.8-2.8,7.8-7.8V38c0-5-2.8-7.8-7.8-7.8h-17.2c-5,0-7.8,2.8-7.8,7.8v112.8
		C139.4,155.8,142.2,158.6,147.2,158.6"/>
	<path class="st0" d="M35.3,158.6h17.2c5,0,7.8-2.8,7.8-7.8v-41.3h34c5,0,7.8-2.8,7.8-7.8V86.9c0-5-2.8-7.8-7.8-7.8h-34V63h47
		c5,0,7.8-2.8,7.8-7.8V38c0-5-2.8-7.8-7.8-7.8h-72c-5,0-7.8,2.8-7.8,7.8v112.8C27.5,155.8,30.3,158.6,35.3,158.6"/>
	<path class="st0" d="M826.6,261.4h27.2v-3.8h-23v-13.1h20.3v-3.8h-20.3v-12.7h22.7v-3.8h-26.9V261.4z M793.7,262
		c6.8,0,11-2.6,14.9-6.5l-2.8-2.7c-3.6,3.4-6.9,5.4-12,5.4c-8.2,0-14.4-6.8-14.4-15.4v-0.1c0-8.6,6.2-15.3,14.4-15.3
		c5.1,0,8.6,2.1,11.7,5.1l2.9-3.1c-3.7-3.5-7.8-5.9-14.5-5.9c-11,0-18.8,8.7-18.8,19.3v0.1C775,253.5,782.9,262,793.7,262
		 M750.9,261.4h4.2v-37.3h-4.2V261.4z M712.7,261.6h3.7l16-37.5H728l-13.3,32.1l-13.3-32.1h-4.7L712.7,261.6z M656,243.1V228h11.5
		c6,0,9.5,2.8,9.5,7.3v0.1c0,4.8-4,7.7-9.6,7.7H656z M651.8,261.4h4.2v-14.5h10.7l10.8,14.5h5.2l-11.4-15.2
		c5.9-1.1,10.1-4.7,10.1-10.9v-0.1c0-2.9-1.1-5.5-2.9-7.4c-2.3-2.3-6-3.7-10.6-3.7h-16V261.4z M605.5,261.4h27.2v-3.8h-23v-13.1H630
		v-3.8h-20.3v-12.7h22.7v-3.8h-26.9V261.4z M573.6,261.9c7.4,0,12.7-4.1,12.7-10.5v-0.1c0-5.7-3.8-8.7-12.1-10.5
		c-8.2-1.8-10.1-3.7-10.1-7.2v-0.1c0-3.4,3.1-6,7.9-6c3.8,0,7.3,1.2,10.8,4l2.4-3.3c-3.8-3-7.7-4.6-13.1-4.6
		c-7.1,0-12.2,4.3-12.2,10.2v0.1c0,6.1,3.9,8.9,12.5,10.8c7.8,1.6,9.7,3.6,9.7,7.1v0.1c0,3.7-3.3,6.3-8.3,6.3
		c-5.2,0-8.9-1.8-12.8-5.3l-2.6,3.1C562.8,259.9,567.6,261.9,573.6,261.9 M497,261.4h4.3v-14.8l15.5-22.5h-4.9l-12.7,18.6
		l-12.6-18.6h-5.1l15.5,22.5V261.4z M441.8,243.1V228h11.5c6,0,9.5,2.8,9.5,7.3v0.1c0,4.8-4,7.7-9.6,7.7H441.8z M437.6,261.4h4.2
		v-14.5h10.6l10.8,14.5h5.2l-11.4-15.2c5.9-1.1,10.1-4.7,10.1-10.9v-0.1c0-2.9-1.1-5.5-2.9-7.4c-2.3-2.3-6-3.7-10.6-3.7h-16V261.4z
		 M391.2,261.4h27.2v-3.8h-23v-13.1h20.3v-3.8h-20.3v-12.7h22.7v-3.8h-26.9V261.4z M353.5,261.6h3.7l16-37.5h-4.5l-13.3,32.1
		l-13.3-32.1h-4.7L353.5,261.6z M314.9,261.4h4.2v-37.3h-4.2V261.4z M270.9,261.4h25.2v-3.9h-21v-33.4h-4.2V261.4z M224.6,261.4
		h27.2v-3.8h-23v-13.1h20.3v-3.8h-20.3v-12.7h22.7v-3.8h-26.9V261.4z M176.5,257.5V228h8.7c9.4,0,15.4,6.5,15.4,14.8v0.1
		c0,8.3-6,14.6-15.4,14.6H176.5z M172.3,261.4h12.9c11.7,0,19.8-8.1,19.8-18.6v-0.1c0-10.5-8.1-18.5-19.8-18.5h-12.9V261.4z"/>
</g>
</svg>
