<?xml version="1.0" encoding="utf-8"?>
<!-- Generator: Adobe Illustrator 22.1.0, SVG Export Plug-In . SVG Version: 6.00 Build 0)  -->
<svg version="1.1"
	 id="Layer_1" xmlns:cc="http://creativecommons.org/ns#" xmlns:dc="http://purl.org/dc/elements/1.1/" xmlns:inkscape="http://www.inkscape.org/namespaces/inkscape" xmlns:rdf="http://www.w3.org/1999/02/22-rdf-syntax-ns#" xmlns:sodipodi="http://sodipodi.sourceforge.net/DTD/sodipodi-0.dtd" xmlns:svg="http://www.w3.org/2000/svg"
	 xmlns="http://www.w3.org/2000/svg" xmlns:xlink="http://www.w3.org/1999/xlink" x="0px" y="0px" viewBox="0 0 512 512"
	 style="enable-background:new 0 0 512 512;" xml:space="preserve">
<g transform="translate(0,-952.36218)">
	<path d="M38.4,1022.8c-21.2,0-38.4,17.2-38.4,38.4c0,21.2,17.2,38.4,38.4,38.4h435.2c21.2,0,38.4-17.2,38.4-38.4
		c0-21.2-17.2-38.4-38.4-38.4H38.4z M38.4,1170c-21.2,0-38.4,17.2-38.4,38.4c0,21.2,17.2,38.4,38.4,38.4h435.2
		c21.2,0,38.4-17.2,38.4-38.4c0-21.2-17.2-38.4-38.4-38.4H38.4z M38.4,1317.2c-21.2,0-38.4,17.2-38.4,38.4
		c0,21.2,17.2,38.4,38.4,38.4h435.2c21.2,0,38.4-17.2,38.4-38.4c0-21.2-17.2-38.4-38.4-38.4H38.4z"/>
</g>
</svg>
