<?xml version="1.0" encoding="utf-8"?>
<!-- Generator: Adobe Illustrator 22.1.0, SVG Export Plug-In . SVG Version: 6.00 Build 0)  -->
<svg version="1.1" id="Layer_1" xmlns="http://www.w3.org/2000/svg" xmlns:xlink="http://www.w3.org/1999/xlink" x="0px" y="0px"
	 viewBox="0 0 512 512" style="enable-background:new 0 0 512 512;" xml:space="preserve">
<g>
	<path d="M448.8,146.4c-3.7-13.3-9-26.4-15.3-38.7c-6.3-12.3-14.2-23.4-22.8-34.2c-15.5-19.5-35.5-36-57.2-48.1
		c-12.1-6.7-25-12.2-38.2-16.4c-13.4-4.2-27.1-6.6-41.1-8c-6.1-0.7-12.1-1-18.2-1c-53.8,0.1-106.6,22.3-143.9,61.1
		C74.4,100.4,53.3,155,56.3,209.5c1.8,33.7,11.6,66.9,29.6,95.6c8.2,13.1,17.7,25.5,26.8,37.9c25,33.8,50.7,67,76.5,100.1
		c15.6,20,31.2,40,46.9,60c0.3,0.3,0.5,0.7,0.8,1c3.8,4.9,13.2,8.2,19.2,7.9c6.7-0.3,14.8-2.4,19.2-7.9
		c13.2-16.7,26.4-33.6,39.5-50.4c25.9-33.3,51.7-66.6,77-100.3c9.5-12.6,18.9-25.3,27.9-38.3c16.1-23.2,28-49.9,32.9-77.8
		C457.9,207,457.1,176,448.8,146.4z M400.8,219.7c-2,12.5-5.3,24.7-9.9,36.5c-8.4,18.8-20.5,35.3-32.6,51.8
		c-12.5,17.1-25.4,34-38.2,50.8c-7.4,9.7-14.9,19.4-22.3,29.1c-11.1,14.3-22.1,28.5-33.3,42.8c-2.8,3.6-5.6,7.1-8.3,10.7
		c-7.7-9.8-15.3-19.6-23-29.4c-7.2-9.2-14.3-18.4-21.3-27.6c1.4,1.8,2.8,3.6,4.2,5.5c-14-18.1-27.9-36.2-41.7-54.5
		c-11.2-14.8-22.4-29.7-33.1-45c-7.6-10.7-14.4-21.8-19.7-33.8c-4.7-11.9-8.1-24.2-10.1-36.8c-1.5-13.2-1.5-26.5,0-39.7
		c2-12.6,5.4-25,10.1-36.8c5.1-11.5,11.5-22.4,19-32.5c7.8-9.7,16.6-18.5,26.3-26.3c10.2-7.5,21.2-14,32.8-19.2
		c11.9-4.7,24.2-8,36.8-10c6.6-0.7,13.2-1.1,19.8-1.1c0.5,0,0.9,0,1.4,0c6.1,0.1,12.2,0.4,18.3,1.1c12.7,2,25,5.4,36.9,10.1
		c11.5,5.1,22.4,11.5,32.5,19c9.7,7.8,18.5,16.6,26.3,26.3c7.5,10.2,14,21.2,19.2,32.8c4.7,11.8,8,24.1,10,36.7
		C402.2,193.3,402.2,206.6,400.8,219.7z"/>
	<path d="M339.2,192.9c-0.7-5.2-1.2-10.4-2.7-15.4c-2.2-7.6-5.5-15.3-9.8-22c-4.4-6.7-9.5-13.2-15.8-18.3c-3.8-3.1-7.9-6.3-12.1-8.9
		c-4.3-2.6-9-4.5-13.8-6.4c-7.7-3.1-15.9-4.4-24.1-5.1c-8.4-0.7-17.2,0.4-25.4,2.3c-7.7,1.8-15.5,5.1-22.3,9.3
		c-6.7,4.1-13.2,9.2-18.5,15c-5.4,6-10.3,12.6-13.7,20c-2.1,4.6-4.2,9.4-5.6,14.3c-1.4,5-2,10.3-2.7,15.4c-1,8.3-0.1,16.9,1.6,25.1
		c1.5,8,4.8,15.9,8.7,23c3.8,6.9,8.8,13.4,14.5,18.9c5.6,5.5,12.2,10.5,19.3,14c7.3,3.7,15.2,6.9,23.3,8.1
		c5.3,0.8,10.5,1.6,15.8,1.6c1,0,2-0.1,3-0.2c7.3-0.3,14.7-1.4,21.6-3.6c7.6-2.5,15.4-5.9,22-10.6c7.6-5.5,13.8-11.1,19.5-18.5
		c5.7-7.4,9.6-14.9,13-23.8c2.9-7.8,4.2-16.5,4.5-24.8C339.7,199.1,339.6,196,339.2,192.9z M238,176.5c2.1-1.4,4.3-2.7,6.6-3.8
		c2.5-0.9,5-1.6,7.6-2.1c2.6-0.2,5.2-0.2,7.8,0c2.6,0.5,5.1,1.2,7.6,2.1c2.3,1.1,4.5,2.4,6.6,3.9c1.9,1.7,3.7,3.4,5.3,5.3
		c1.4,2.1,2.7,4.3,3.8,6.6c0.9,2.5,1.6,5,2.1,7.6c0.2,2.6,0.2,5.2,0,7.8c-0.5,2.6-1.2,5.1-2.1,7.6c-1.1,2.3-2.4,4.5-3.9,6.6
		c-1.7,1.9-3.4,3.7-5.3,5.3c-2.1,1.4-4.3,2.7-6.6,3.8c-2.5,0.9-5,1.6-7.6,2.1c-1.3,0.1-2.6,0.1-3.9,0.1c-1.3,0-2.6,0-3.9-0.1
		c-2.6-0.5-5.1-1.2-7.6-2.1c-2.3-1.1-4.5-2.4-6.6-3.9c-1.9-1.7-3.7-3.4-5.3-5.3c-1.4-2.1-2.7-4.3-3.8-6.6c-0.9-2.5-1.6-5-2.1-7.6
		c-0.2-2.6-0.2-5.2,0-7.8c0.5-2.6,1.2-5.1,2.1-7.6c1.1-2.3,2.4-4.5,3.9-6.6C234.3,179.9,236.1,178.1,238,176.5z"/>
</g>
</svg>
