<?xml version="1.0" encoding="utf-8"?>
<!-- Generator: Adobe Illustrator 22.1.0, SVG Export Plug-In . SVG Version: 6.00 Build 0)  -->
<svg version="1.1" id="Layer_1" xmlns="http://www.w3.org/2000/svg" xmlns:xlink="http://www.w3.org/1999/xlink" x="0px" y="0px"
	 viewBox="0 0 512 512" style="enable-background:new 0 0 512 512;" xml:space="preserve">
<g>
	<path d="M195.4,0c-13,0-23.5,10.5-23.5,23.5v148.6c0,14.9-12.1,27.1-27.1,27.1h-6.2V23.5c0-13-10.5-23.5-23.5-23.5
		S91.6,10.5,91.6,23.5v175.7h-6.2c-14.9,0-27-12.1-27-27.1V23.5C58.4,10.5,47.9,0,34.9,0S11.4,10.5,11.4,23.5v148.6
		c0,40.9,33.2,74.1,74.1,74.1h6.2v242.2c0,13,10.5,23.5,23.5,23.5s23.5-10.5,23.5-23.5V246.2h6.2c40.9,0,74.1-33.2,74.1-74.1V23.5
		C218.9,10.5,208.4,0,195.4,0z"/>
	<path d="M380.9,0c-66,0-119.7,60.9-119.7,135.7c0,65.7,41.4,120.7,96.2,133.1v219.6c0,13,10.5,23.5,23.5,23.5
		c13,0,23.5-10.5,23.5-23.5V268.8c54.8-12.4,96.2-67.4,96.2-133.1C500.6,60.9,446.9,0,380.9,0z M380.9,224.5
		c-40.1,0-72.7-39.8-72.7-88.7c0-48.9,32.6-88.7,72.7-88.7s72.7,39.8,72.7,88.7C453.6,184.7,421,224.5,380.9,224.5z"/>
</g>
</svg>
