<?xml version="1.0" encoding="utf-8"?>
<!-- Generator: Adobe Illustrator 22.1.0, SVG Export Plug-In . SVG Version: 6.00 Build 0)  -->
<svg version="1.1" id="Layer_1" xmlns="http://www.w3.org/2000/svg" xmlns:xlink="http://www.w3.org/1999/xlink" x="0px" y="0px"
	 viewBox="0 0 512 512" style="enable-background:new 0 0 512 512;" xml:space="preserve">
<path d="M255.9,512.1c-28.8,0-52.3-24.5-52.3-54.6v-28.7h-10.2c-40.5,0-73.4-32.3-73.4-72.1V211.3c0-27.5,9-53.5,26.1-75.4
	c15-19.2,35.8-34,58.9-42c-2.9-4.3-5.3-9-7-13.8h-85.8c-10.9,0-19.8-8.9-19.8-19.8s8.9-19.8,19.8-19.8h85.8
	C206.6,16.5,229.9,0,256,0c26,0,49.4,16.5,58,40.5h85.8c10.8,0,19.6,8.8,19.6,19.7c0,10.9-8.9,19.8-19.8,19.8h-85.8
	c-1.8,4.9-4.1,9.5-7,13.8c50.4,17.3,85,64.6,85,117.3v145.4c0,39.8-32.9,72.1-73.4,72.1h-10.1v28.8
	C308.3,487.6,284.8,512.1,255.9,512.1z M255.9,353c-6.8,0-12.8,7.1-12.8,15.1v89.3c0,8.3,5.7,15,12.8,15c7.1,0,12.8-6.7,12.8-15
	v-89.3C268.8,359.9,262.9,353,255.9,353z M318.5,389c18.7,0,33.8-14.6,33.8-32.5V211.2c0-46.6-39.2-84.7-87.3-84.7h-17.9
	c-48.2,0-87.4,38-87.4,84.7v145.4c0,17.9,15.2,32.5,33.8,32.5h10.2v-20.9c0-30.1,23.5-54.6,52.3-54.6c28.9,0,52.4,24.5,52.4,54.6
	V389H318.5z M256,39.6c-12,0-21.8,9.3-21.8,20.8c0,11.4,9.8,20.7,21.8,20.7c12,0,21.8-9.3,21.8-20.8C277.8,48.9,268,39.6,256,39.6z"
	/>
</svg>
