<?xml version="1.0" encoding="utf-8"?>
<!-- Generator: Adobe Illustrator 22.1.0, SVG Export Plug-In . SVG Version: 6.00 Build 0)  -->
<svg version="1.1"
	 id="Layer_1" xmlns:cc="http://creativecommons.org/ns#" xmlns:dc="http://purl.org/dc/elements/1.1/" xmlns:inkscape="http://www.inkscape.org/namespaces/inkscape" xmlns:rdf="http://www.w3.org/1999/02/22-rdf-syntax-ns#" xmlns:sodipodi="http://sodipodi.sourceforge.net/DTD/sodipodi-0.dtd" xmlns:svg="http://www.w3.org/2000/svg"
	 xmlns="http://www.w3.org/2000/svg" xmlns:xlink="http://www.w3.org/1999/xlink" x="0px" y="0px" viewBox="0 0 512 512"
	 style="enable-background:new 0 0 512 512;" xml:space="preserve">
<g transform="translate(0,-952.36218)">
	<g transform="translate(8.9950798,961.32626)">
		<path d="M203.4-8.9C86.6-8.9-9,86.4-9,203.2s95.6,212.4,212.4,212.4c44.9,0,86.5-14.4,120.8-38.3L439,491.9
			c14.6,14.8,38.5,14.8,53.1,0c14.6-14.6,14.6-38.3,0-52.9L377.2,324.2c24.1-34.5,38.3-76.1,38.3-121C415.5,86.4,320-8.9,203.4-8.9z
			 M203.4,65.8c76.1,0,137.2,61.1,137.2,137.4s-61.1,137.4-137.2,137.4C127.1,340.6,66,279.5,66,203.2S127.1,65.8,203.4,65.8z"/>
	</g>
</g>
</svg>
