<?xml version="1.0" encoding="utf-8"?>
<!-- Generator: Adobe Illustrator 22.1.0, SVG Export Plug-In . SVG Version: 6.00 Build 0)  -->
<svg version="1.1" xmlns="http://www.w3.org/2000/svg" xmlns:xlink="http://www.w3.org/1999/xlink" x="0px" y="0px"
	 viewBox="0 0 512 512" style="enable-background:new 0 0 512 512;" xml:space="preserve">
<style type="text/css">
	.st0{display:none;}
	.st1{display:inline;}
</style>
<g id="Layer_1" xmlns:cc="http://creativecommons.org/ns#" xmlns:dc="http://purl.org/dc/elements/1.1/" xmlns:inkscape="http://www.inkscape.org/namespaces/inkscape" xmlns:rdf="http://www.w3.org/1999/02/22-rdf-syntax-ns#" xmlns:sodipodi="http://sodipodi.sourceforge.net/DTD/sodipodi-0.dtd" xmlns:svg="http://www.w3.org/2000/svg" class="st0">
	<g transform="translate(0,-952.36218)" class="st1">
		<path d="M38.4,1022.8c-21.2,0-38.4,17.2-38.4,38.4s17.2,38.4,38.4,38.4h435.2c21.2,0,38.4-17.2,38.4-38.4
			c0-21.2-17.2-38.4-38.4-38.4L38.4,1022.8L38.4,1022.8z M38.4,1170c-21.2,0-38.4,17.2-38.4,38.4c0,21.2,17.2,38.4,38.4,38.4h435.2
			c21.2,0,38.4-17.2,38.4-38.4c0-21.2-17.2-38.4-38.4-38.4H38.4z M38.4,1317.2c-21.2,0-38.4,17.2-38.4,38.4
			c0,21.2,17.2,38.4,38.4,38.4h435.2c21.2,0,38.4-17.2,38.4-38.4c0-21.2-17.2-38.4-38.4-38.4H38.4z"/>
	</g>
</g>
<g id="Layer_2">
	<path d="M436.1,297.3c-28.6-28.6-62.8-49.5-100.1-61.8c31.2-24,51.3-61.7,51.3-104.1C387.3,58.8,328.5,0,256,0
		S124.7,58.8,124.7,131.3c0,42.4,20.1,80.1,51.3,104.1c-37.3,12.3-71.5,33.3-100.1,61.8C27.7,345.4,1.2,409.4,1.2,477.4
		c0,19.1,15.5,34.6,34.6,34.6s34.6-15.5,34.6-34.6c0-102.4,83.3-185.6,185.6-185.6c102.4,0,185.6,83.3,185.6,185.6
		c0,19.1,15.5,34.6,34.6,34.6c19.1,0,34.6-15.5,34.6-34.6C510.8,409.4,484.3,345.4,436.1,297.3z M256,69.1
		c34.3,0,62.2,27.9,62.2,62.2s-27.9,62.2-62.2,62.2s-62.2-27.9-62.2-62.2S221.7,69.1,256,69.1z"/>
</g>
</svg>
