<?xml version="1.0" encoding="utf-8"?>
<!-- Generator: Adobe Illustrator 22.1.0, SVG Export Plug-In . SVG Version: 6.00 Build 0)  -->
<svg version="1.1" id="Layer_1" xmlns="http://www.w3.org/2000/svg" xmlns:xlink="http://www.w3.org/1999/xlink" x="0px" y="0px"
	 viewBox="0 0 512 512" style="enable-background:new 0 0 512 512;" xml:space="preserve">
<style type="text/css">
	.st0{fill:#00ADEE;}
</style>
<g id="Layer_1_1_">
</g>
<g id="Isolation_Mode">
	<g>
		<path class="st0" d="M256,0C115,0,0.7,114.6,0.7,256S115,512,256,512s255.3-114.6,255.3-256S397,0,256,0z M385.4,265.8
			c0,19.4-7.4,36.7-22.1,51.8c-14.5,14.5-32.2,21.7-53.1,21.7c-21.2,0-38.9-7.2-53.1-21.7l-0.3-0.3l-0.3,0.3
			c-14.3,14.5-32,21.7-53.1,21.7c-21.2,0-39-7.2-53.4-21.7c-14.7-14.9-22.1-32.1-22.1-51.8V192h43.4v75.2c0,8.1,3,15,9,20.6
			c6.4,6.1,14.1,9.1,23,9.1c9.1,0,16.5-3.1,22-9.5c5.6-6.3,8.7-13.8,9.4-22.4v-72.4h43.1v73.1c0,9,3.1,16.4,9.3,22
			c3.1,2.9,6.5,5.2,10.2,6.8c3.7,1.5,7.9,2.3,12.5,2.3c4.7,0,8.8-0.8,12.5-2.3c3.7-1.6,7.1-3.9,10.2-6.8c6.2-5.9,9.3-13.2,9.3-22
			v-73.8h43.4v73.9H385.4z"/>
	</g>
</g>
</svg>
