<?xml version="1.0" encoding="utf-8"?>
<!-- Generator: Adobe Illustrator 22.1.0, SVG Export Plug-In . SVG Version: 6.00 Build 0)  -->
<svg version="1.1" id="Layer_1" xmlns="http://www.w3.org/2000/svg" xmlns:xlink="http://www.w3.org/1999/xlink" x="0px" y="0px"
	 viewBox="0 0 512 512" style="enable-background:new 0 0 512 512;" xml:space="preserve">
<path d="M1.2,512l36-131.5C15,342,3.3,298.4,3.3,253.7C3.4,113.8,117.2,0,257.1,0c67.9,0,131.6,26.5,179.5,74.4
	c47.9,48,74.3,111.7,74.2,179.5c-0.1,139.9-113.9,253.7-253.7,253.7c-42.5,0-84.3-10.7-121.3-30.9C135.7,476.7,1.2,512,1.2,512z
	 M142,430.8c35.8,21.2,69.9,33.9,115,34c116.2,0,210.9-94.6,211-210.9c0-116.5-94.2-211-210.8-211c-116.3,0-210.9,94.6-211,210.9
	c0,47.5,13.9,83,37.2,120.2l-21.3,77.8C62.1,451.7,142,430.8,142,430.8z M384.9,314.2c-1.6-2.6-5.8-4.2-12.2-7.4
	c-6.3-3.2-37.5-18.5-43.3-20.6c-5.8-2.1-10-3.2-14.3,3.2c-4.2,6.3-16.4,20.6-20.1,24.9s-7.4,4.8-13.7,1.6s-26.8-9.9-51-31.5
	c-18.8-16.8-31.6-37.6-35.3-43.9c-3.7-6.3-0.4-9.8,2.8-12.9c2.9-2.8,6.3-7.4,9.5-11.1c3.2-3.7,4.3-6.3,6.4-10.6
	c2.1-4.2,1.1-7.9-0.5-11.1c-1.6-3.2-14.3-34.4-19.5-47.1c-5.2-12.4-10.4-10.7-14.3-10.9l-12.2-0.2c-4.2,0-11.1,1.6-16.9,7.9
	c-5.8,6.4-22.2,21.7-22.2,52.9s22.7,61.4,25.9,65.6c3.2,4.2,44.7,68.3,108.3,95.7c15.1,6.5,26.9,10.4,36.1,13.4
	c15.2,4.8,29,4.1,39.9,2.5c12.2-1.8,37.5-15.3,42.8-30.1C386.5,329.6,386.5,316.9,384.9,314.2z"/>
</svg>
