<?xml version="1.0" encoding="UTF-8"?>
<svg width="24px" height="20px" viewBox="0 0 24 20" version="1.1" xmlns="http://www.w3.org/2000/svg" xmlns:xlink="http://www.w3.org/1999/xlink">
    <!-- Generator: Sketch 52.2 (67145) - http://www.bohemiancoding.com/sketch -->
    <title>basket</title>
    <desc>Created with Sketch.</desc>
    <defs>
        <path d="M23.259375,8.78437499 L20.746875,8.78437499 L16.2140625,3.04218746 C15.95625,2.71874996 15.4875,2.66249996 15.159375,2.92031246 C14.83125,3.17812496 14.7796875,3.64687497 15.0375,3.97499997 L18.834375,8.78906249 L5.47031247,8.78906249 L9.25781249,3.97499997 C9.51562499,3.65156247 9.45937499,3.17812496 9.13593749,2.92031246 C8.81249999,2.66249996 8.33906248,2.71874996 8.08124998,3.04218746 L3.54843746,8.78437499 L0.749999953,8.78437499 C0.337499951,8.78437499 -5.00000006e-08,9.12187499 -5.00000006e-08,9.53437499 C-5.00000006e-08,9.94687499 0.337499951,10.284375 0.749999953,10.284375 L1.86562496,10.284375 L3.26249996,18.7453125 C3.50624996,20.184375 4.75312497,21.2390625 6.21093748,21.24375 L17.79375,21.24375 C19.25625,21.2390625 20.4984375,20.184375 20.7421875,18.7453125 L22.1296875,10.2984375 L23.25,10.2984375 C23.6625,10.2984375 24.0000001,9.96093749 24.0000001,9.54843749 C24.0000001,9.13593749 23.6625,8.79843749 23.25,8.79843749 L23.259375,8.78437499 Z M19.275,18.496875 C19.153125,19.21875 18.5296875,19.7484375 17.7984375,19.74375 L6.21093748,19.74375 C5.47968747,19.74375 4.85624997,19.2140625 4.73437497,18.496875 L3.38437496,10.29375 L20.6203125,10.29375 L19.275,18.496875 Z" id="path-1"></path>
    </defs>
    <g id="Icons-White" stroke="none" stroke-width="1" fill="none" fill-rule="evenodd">
        <g id="icons-/-white-/-basket" transform="translate(0.000000, -2.000000)">
            <mask id="mask-2" fill="white">
                <use xlink:href="#path-1"></use>
            </mask>
            <use id="basket" fill="#FFFFFF" fill-rule="nonzero" xlink:href="#path-1"></use>
        </g>
    </g>
</svg>