<?xml version="1.0" encoding="UTF-8"?>
<svg width="24px" height="24px" viewBox="0 0 24 24" version="1.1" xmlns="http://www.w3.org/2000/svg" xmlns:xlink="http://www.w3.org/1999/xlink">
    <!-- Generator: Sketch 52.2 (67145) - http://www.bohemiancoding.com/sketch -->
    <title>crosshair</title>
    <desc>Created with Sketch.</desc>
    <defs>
        <path d="M12,24.0000001 C5.37656247,24.0000001 -5.00000006e-08,18.6234375 -5.00000006e-08,12 C-5.00000006e-08,5.37656247 5.37656247,-5.00000006e-08 12,-5.00000006e-08 C18.6234375,-5.00000006e-08 24.0000001,5.37656247 24.0000001,12 C24.0000001,18.6234375 18.6234375,24.0000001 12,24.0000001 Z M13.33125,2.76562496 L13.33125,7.47656248 L10.66875,7.47656248 L10.66875,2.76562496 C6.57187498,3.35156246 3.35156246,6.57187498 2.76562496,10.66875 L7.47656248,10.66875 L7.47656248,13.33125 L2.76562496,13.33125 C3.35156246,17.428125 6.57187498,20.6484375 10.66875,21.234375 L10.66875,16.5234375 L13.33125,16.5234375 L13.33125,21.234375 C17.428125,20.6484375 20.6484375,17.428125 21.234375,13.33125 L16.5234375,13.33125 L16.5234375,10.66875 L21.20625,10.66875 C20.6484375,6.57187498 17.428125,3.35156246 13.33125,2.76562496 Z" id="path-1"></path>
    </defs>
    <g id="Icons-Grey" stroke="none" stroke-width="1" fill="none" fill-rule="evenodd">
        <g id="icons-/-grey-/-crosshair">
            <mask id="mask-2" fill="white">
                <use xlink:href="#path-1"></use>
            </mask>
            <use id="crosshair" fill="#B1B3B4" fill-rule="nonzero" xlink:href="#path-1"></use>
        </g>
    </g>
</svg>