<?xml version="1.0" encoding="UTF-8"?>
<svg width="260px" height="64px" viewBox="0 0 260 64" version="1.1" xmlns="http://www.w3.org/2000/svg" xmlns:xlink="http://www.w3.org/1999/xlink">
    <!-- Generator: Sketch 52.2 (67145) - http://www.bohemiancoding.com/sketch -->
    <title>group</title>
    <desc>Created with Sketch.</desc>
    <g id="Assets" stroke="none" stroke-width="1" fill="none" fill-rule="evenodd">
        <g id="assets-/-brand-/-icon" transform="translate(0.000000, 1.000000)">
            <g id="group" transform="translate(0.000000, -1.000000)">
                <path d="M238.727065,27.3340365 L238.727065,10.5488243 L243.003553,10.5488243 C247.119671,10.5488243 250.70123,14.4778469 250.70123,18.9414304 C250.70123,23.4050139 247.092943,27.3340365 242.950096,27.3340365 L238.727065,27.3340365 Z M232.045054,36.1008353 L242.950096,36.1008353 C251.903992,36.1008353 259.521484,28.2695181 259.521484,18.9414304 C259.521484,14.5847591 257.810889,10.2548158 254.79062,7.02072231 C251.636711,3.62626059 247.467136,1.78202549 243.003553,1.78202549 L232.045054,1.78202549 C230.708652,1.78202549 229.960267,2.53041075 229.960267,3.866813 L229.960267,34.0160478 C229.960267,35.35245 230.681924,36.1008353 232.045054,36.1008353 Z" id="Shape" fill="#FFFFFF" fill-rule="nonzero"></path>
                <path d="M204.942816,28.1626059 C199.83776,28.1626059 195.668185,24.046487 195.668185,18.9414304 C195.668185,13.8363738 199.83776,9.66679877 204.942816,9.66679877 C210.047873,9.66679877 214.163992,13.8363738 214.163992,18.9414304 C214.19072,24.046487 210.047873,28.1626059 204.942816,28.1626059 M204.942816,36.9294047 C214.858921,36.9294047 222.984247,28.8575351 222.984247,18.9414304 C222.984247,8.9718696 214.858921,0.9 204.942816,0.9 C194.973256,0.9 186.901386,8.9718696 186.901386,18.9414304 C186.901386,28.8575351 194.973256,36.9294047 204.942816,36.9294047" id="Shape" fill="#E1007A" fill-rule="nonzero"></path>
                <path d="M163.300522,28.1626059 C158.195466,28.1626059 154.025891,24.046487 154.025891,18.9414304 C154.025891,13.8363738 158.195466,9.66679877 163.300522,9.66679877 C168.405579,9.66679877 172.521698,13.8363738 172.521698,18.9414304 C172.521698,24.046487 168.405579,28.1626059 163.300522,28.1626059 M163.300522,36.9294047 C173.216627,36.9294047 181.341953,28.8575351 181.341953,18.9414304 C181.341953,8.9718696 173.216627,0.9 163.300522,0.9 C153.330961,0.9 145.259092,8.9718696 145.259092,18.9414304 C145.259092,28.8575351 153.330961,36.9294047 163.300522,36.9294047" id="Shape" fill="#E1007A" fill-rule="nonzero"></path>
                <path d="M119.733809,36.1008353 L124.331033,36.1008353 C125.667435,36.1008353 126.41582,35.35245 126.41582,34.0160478 L126.41582,22.9773652 L135.503355,22.9773652 C136.839758,22.9773652 137.588143,22.2289799 137.588143,20.8925777 L137.588143,16.936827 C137.588143,15.6004248 136.839758,14.8520395 135.503355,14.8520395 L126.41582,14.8520395 L126.41582,10.5488243 L138.978001,10.5488243 C140.314404,10.5488243 141.062789,9.80043899 141.062789,8.46403674 L141.062789,3.866813 C141.062789,2.53041075 140.314404,1.78202549 138.978001,1.78202549 L119.733809,1.78202549 C118.397407,1.78202549 117.649021,2.53041075 117.649021,3.866813 L117.649021,34.0160478 C117.649021,35.35245 118.397407,36.1008353 119.733809,36.1008353" id="Path" fill="#FFFFFF"></path>
                <path d="M92.6582993,28.1626059 C87.5532427,28.1626059 83.3836676,24.046487 83.3836676,18.9414304 C83.3836676,13.8363738 87.5532427,9.66679877 92.6582993,9.66679877 C97.7633559,9.66679877 101.879475,13.8363738 101.879475,18.9414304 C101.879475,24.046487 97.7633559,28.1626059 92.6582993,28.1626059 M92.6582993,36.9294047 C102.574404,36.9294047 110.69973,28.8575351 110.69973,18.9414304 C110.69973,8.9718696 102.574404,0.9 92.6582993,0.9 C82.6887385,0.9 74.6168689,8.9718696 74.6168689,18.9414304 C74.6168689,28.8575351 82.6887385,36.9294047 92.6582993,36.9294047" id="Shape" fill="#FFFFFF" fill-rule="nonzero"></path>
                <path d="M49.6261468,36.1008353 L68.6030587,36.1008353 C69.939461,36.1008353 70.6878462,35.35245 70.6878462,34.0160478 L70.6878462,29.418824 C70.6878462,28.0824218 69.939461,27.3340365 68.6030587,27.3340365 L56.308158,27.3340365 L56.308158,3.866813 C56.308158,2.53041075 55.5597728,1.78202549 54.2233705,1.78202549 L49.6261468,1.78202549 C48.2897445,1.78202549 47.5413593,2.53041075 47.5413593,3.866813 L47.5413593,34.0160478 C47.5413593,35.35245 48.2630165,36.1008353 49.6261468,36.1008353" id="Path" fill="#FFFFFF"></path>
                <path d="M32.4934699,36.1008353 L37.0906936,36.1008353 C38.4270959,36.1008353 39.1754812,35.35245 39.1754812,34.0160478 L39.1754812,3.866813 C39.1754812,2.53041075 38.4270959,1.78202549 37.0906936,1.78202549 L32.4934699,1.78202549 C31.1570676,1.78202549 30.4086824,2.53041075 30.4086824,3.866813 L30.4086824,34.0160478 C30.4086824,35.35245 31.1570676,36.1008353 32.4934699,36.1008353" id="Path" fill="#FFFFFF"></path>
                <path d="M2.58478751,36.1008353 L7.18201126,36.1008353 C8.51841351,36.1008353 9.26679877,35.35245 9.26679877,34.0160478 L9.26679877,22.9773652 L18.3543341,22.9773652 C19.6907363,22.9773652 20.4391216,22.2289799 20.4391216,20.8925777 L20.4391216,16.936827 C20.4391216,15.6004248 19.6907363,14.8520395 18.3543341,14.8520395 L9.26679877,14.8520395 L9.26679877,10.5488243 L21.8289799,10.5488243 C23.1653822,10.5488243 23.9137674,9.80043899 23.9137674,8.46403674 L23.9137674,3.866813 C23.9137674,2.53041075 23.1653822,1.78202549 21.8289799,1.78202549 L2.58478751,1.78202549 C1.24838526,1.78202549 0.5,2.53041075 0.5,3.866813 L0.5,34.0160478 C0.5,35.35245 1.24838526,36.1008353 2.58478751,36.1008353" id="Path" fill="#FFFFFF"></path>
                <path d="M214.083808,63.5772656 L221.353836,63.5772656 L221.353836,62.5615999 L215.206386,62.5615999 L215.206386,59.060226 L220.632179,59.060226 L220.632179,58.0445603 L215.206386,58.0445603 L215.206386,54.6500986 L221.273652,54.6500986 L221.273652,53.6344328 L214.083808,53.6344328 L214.083808,63.5772656 Z M205.290281,63.7376339 C207.107788,63.7376339 208.230366,63.0427047 209.27276,62.0003109 L208.524374,61.2786537 C207.562165,62.1874073 206.680139,62.7219682 205.317009,62.7219682 C203.125309,62.7219682 201.468171,60.9044611 201.468171,58.6058492 L201.468171,58.5791212 C201.468171,56.2805093 203.125309,54.4897303 205.317009,54.4897303 C206.680139,54.4897303 207.615621,55.0510192 208.44419,55.8528606 L209.219304,55.0242912 C208.230366,54.0888096 207.134516,53.4473365 205.343737,53.4473365 C202.403652,53.4473365 200.318865,55.7726764 200.318865,58.6058492 L200.318865,58.6325773 C200.292137,61.46575 202.403652,63.7376339 205.290281,63.7376339 Z M193.850678,63.5772656 L194.973256,63.5772656 L194.973256,53.6077048 L193.850678,53.6077048 L193.850678,63.5772656 Z M183.640565,63.6307217 L184.629502,63.6307217 L188.905989,53.6077048 L187.729955,53.6077048 L184.175125,62.1874073 L180.620295,53.6077048 L179.364077,53.6077048 L183.640565,63.6307217 Z M168.485763,58.6860334 L168.485763,54.6500986 L171.559488,54.6500986 C173.163171,54.6500986 174.098652,55.3984838 174.098652,56.6012458 L174.098652,56.6279739 C174.098652,57.91092 173.029531,58.6860334 171.53276,58.6860334 L168.485763,58.6860334 Z M167.363185,63.5772656 L168.485763,63.5772656 L168.485763,59.7016991 L171.345664,59.7016991 L174.232293,63.5772656 L175.622151,63.5772656 L172.575154,59.5146027 C174.152109,59.2205943 175.274686,58.2583846 175.274686,56.6012458 L175.274686,56.5745178 C175.274686,55.7994045 174.980678,55.1044753 174.499573,54.5966425 C173.884828,53.9818974 172.89589,53.6077048 171.6664,53.6077048 L167.389913,53.6077048 L167.389913,63.5772656 L167.363185,63.5772656 Z M154.9881,63.5772656 L162.258129,63.5772656 L162.258129,62.5615999 L156.110678,62.5615999 L156.110678,59.060226 L161.536471,59.060226 L161.536471,58.0445603 L156.110678,58.0445603 L156.110678,54.6500986 L162.177944,54.6500986 L162.177944,53.6344328 L154.9881,53.6344328 L154.9881,63.5772656 Z M146.461854,63.7109058 C148.439729,63.7109058 149.856316,62.615056 149.856316,60.9044611 L149.856316,60.877733 C149.856316,59.3542345 148.84065,58.5523931 146.622222,58.0712883 C144.430522,57.5901835 143.92269,57.0823507 143.92269,56.1468691 L143.92269,56.120141 C143.92269,55.2113875 144.751259,54.5164583 146.034205,54.5164583 C147.049871,54.5164583 147.985352,54.8371949 148.920834,55.5855801 L149.562307,54.7035546 C148.546641,53.9017133 147.504248,53.4740646 146.060933,53.4740646 C144.163242,53.4740646 142.800112,54.6233705 142.800112,56.2003252 L142.800112,56.2270532 C142.800112,57.857464 143.842505,58.6058492 146.141117,59.1136821 C148.225905,59.5413308 148.733738,60.0758917 148.733738,61.0113733 L148.733738,61.0381013 C148.733738,62.027039 147.851712,62.7219682 146.51531,62.7219682 C145.125452,62.7219682 144.136514,62.2408633 143.09412,61.3053818 L142.399191,62.1339512 C143.575225,63.1763449 144.858171,63.7109058 146.461854,63.7109058 Z M125.988171,63.5772656 L127.137477,63.5772656 L127.137477,59.6215149 L131.280324,53.6077048 L129.97065,53.6077048 L126.576188,58.5791212 L123.208455,53.6077048 L121.845324,53.6077048 L125.988171,59.6215149 L125.988171,63.5772656 Z M111.234291,58.6860334 L111.234291,54.6500986 L114.308016,54.6500986 C115.911698,54.6500986 116.84718,55.3984838 116.84718,56.6012458 L116.84718,56.6279739 C116.84718,57.91092 115.778058,58.6860334 114.281288,58.6860334 L111.234291,58.6860334 Z M110.111713,63.5772656 L111.234291,63.5772656 L111.234291,59.7016991 L114.067463,59.7016991 L116.954092,63.5772656 L118.343951,63.5772656 L115.296953,59.5146027 C116.873908,59.2205943 117.996486,58.2583846 117.996486,56.6012458 L117.996486,56.5745178 C117.996486,55.7994045 117.702477,55.1044753 117.221373,54.5966425 C116.606628,53.9818974 115.61769,53.6077048 114.3882,53.6077048 L110.111713,53.6077048 L110.111713,63.5772656 Z M97.7098998,63.5772656 L104.979928,63.5772656 L104.979928,62.5615999 L98.8324777,62.5615999 L98.8324777,59.060226 L104.258271,59.060226 L104.258271,58.0445603 L98.8324777,58.0445603 L98.8324777,54.6500986 L104.899744,54.6500986 L104.899744,53.6344328 L97.7098998,53.6344328 L97.7098998,63.5772656 Z M87.6334268,63.6307217 L88.6223645,63.6307217 L92.8988517,53.6077048 L91.6960896,53.6077048 L88.1412596,62.1874073 L84.5864297,53.6077048 L83.3302115,53.6077048 L87.6334268,63.6307217 Z M77.3164014,63.5772656 L78.4389793,63.5772656 L78.4389793,53.6077048 L77.3164014,53.6077048 L77.3164014,63.5772656 Z M65.5560616,63.5772656 L72.2915289,63.5772656 L72.2915289,62.5348718 L66.6786395,62.5348718 L66.6786395,53.6077048 L65.5560616,53.6077048 L65.5560616,63.5772656 Z M53.1809768,63.5772656 L60.451005,63.5772656 L60.451005,62.5615999 L54.3035546,62.5615999 L54.3035546,59.060226 L59.7293478,59.060226 L59.7293478,58.0445603 L54.3035546,58.0445603 L54.3035546,54.6500986 L60.3708209,54.6500986 L60.3708209,53.6344328 L53.1809768,53.6344328 L53.1809768,63.5772656 Z M40.3247871,62.5348718 L40.3247871,54.6500986 L42.650127,54.6500986 C45.1625632,54.6500986 46.7662459,56.3874215 46.7662459,58.6058492 L46.7662459,58.6325773 C46.7662459,60.851005 45.1625632,62.5348718 42.650127,62.5348718 L40.3247871,62.5348718 Z M39.2022092,63.5772656 L42.650127,63.5772656 C45.7773083,63.5772656 47.9422799,61.4122939 47.9422799,58.6058492 L47.9422799,58.5791212 C47.9422799,55.7726764 45.7773083,53.6344328 42.650127,53.6344328 L39.2022092,53.6344328 L39.2022092,63.5772656 Z" id="Shape" fill="#FFFFFF" fill-rule="nonzero"></path>
            </g>
        </g>
    </g>
</svg>