<?xml version="1.0" encoding="UTF-8"?>
<svg width="20px" height="24px" viewBox="0 0 20 24" version="1.1" xmlns="http://www.w3.org/2000/svg" xmlns:xlink="http://www.w3.org/1999/xlink">
    <!-- Generator: Sketch 52.2 (67145) - http://www.bohemiancoding.com/sketch -->
    <title>pin</title>
    <desc>Created with Sketch.</desc>
    <defs>
        <path d="M21.0198831,6.84912279 C21.4081872,8.23391811 21.4456141,9.68421052 21.1976609,11.1017544 C20.9684211,12.4070175 20.4116959,13.6561404 19.6584796,14.7415205 C19.2374269,15.3497076 18.7976608,15.9438597 18.3532164,16.5333334 C17.1695907,18.1099415 15.9625731,19.6678363 14.7508772,21.225731 C14.1380117,22.0116959 13.5204678,22.8023392 12.902924,23.5836258 C12.697076,23.8409357 12.3181287,23.9391813 12.0046784,23.9532164 C11.7239766,23.9672515 11.2842105,23.8128655 11.1064327,23.5836258 C11.0923977,23.5695907 11.0830409,23.5508772 11.0690058,23.5368422 C10.3345029,22.6011696 9.60467835,21.6654971 8.87485379,20.7298246 C7.66783624,19.1812866 6.46549705,17.6280702 5.2959064,16.0467836 C4.87017541,15.4666667 4.42573096,14.8865497 4.04210523,14.2736842 C3.19999996,12.9309942 2.74152043,11.3777778 2.6573099,9.80116958 C2.51695902,7.25146197 3.50409353,4.69707599 5.26783623,2.85847949 C7.01286548,1.04327481 9.48304093,0.00467831259 12,-5.00000041e-08 C12.2853801,-5.00000041e-08 12.5660819,0.0140350378 12.851462,0.0467835759 C13.5064328,0.112280652 14.1473684,0.224561354 14.774269,0.421052583 C15.3918129,0.617543812 15.9953217,0.874853755 16.5614035,1.18830405 C17.5766082,1.75438592 18.5122807,2.52631575 19.2374269,3.43859646 C19.6397661,3.94385962 20.0093568,4.46315786 20.3040936,5.03859646 C20.5988304,5.61403506 20.8467837,6.22690056 21.0198831,6.84912279 Z M18.774269,10.2783626 C18.8397661,9.66549707 18.8397661,9.04327484 18.7789474,8.43040934 C18.6853801,7.84093566 18.5309942,7.26549706 18.3111111,6.71345027 C18.0678363,6.17076021 17.7637427,5.65614032 17.4128655,5.17894734 C17.0479532,4.72514617 16.6362573,4.31345026 16.1824562,3.94853798 C15.7099415,3.59766078 15.2,3.29824558 14.6619883,3.05964909 C14.1052632,2.83976604 13.5298246,2.68070172 12.9356725,2.58713446 C12.6502924,2.55438593 12.3649123,2.54035084 12.0795322,2.53567248 C12.0561404,2.53567248 12.0374269,2.53567248 12.0140351,2.53567248 C11.7052632,2.53567248 11.3964912,2.55438593 11.0877193,2.58713446 C10.4982456,2.68070172 9.92280701,2.83508768 9.36608186,3.05497072 C8.8233918,3.29824558 8.30877191,3.60233915 7.83157893,3.95321634 C7.37777776,4.31812862 6.96608185,4.72982453 6.60116957,5.1836257 C6.25029237,5.65614032 5.95087717,6.16608185 5.71228068,6.70409355 C5.49239763,7.25614033 5.33333331,7.83625729 5.23976605,8.42573098 C5.16959061,9.04327484 5.16959061,9.66549707 5.23976605,10.2830409 C5.33333331,10.8725146 5.49239763,11.4479532 5.71228068,12.0046784 C5.96023389,12.5660819 6.27836255,13.0853801 6.63391811,13.5859649 C7.1345029,14.3017544 7.65847951,14.9988304 8.18245612,15.6912281 C8.82807016,16.5473684 9.47836256,17.3941521 10.1333333,18.2409357 C10.0678362,18.1520468 10.0023392,18.0678363 9.9368421,17.9836258 C10.2643275,18.4140351 10.5964912,18.8444445 10.9333333,19.2748538 C11.2935672,19.7333334 11.6491228,20.1918129 12.0093567,20.6502924 C12.1356725,20.4818714 12.2666667,20.3181287 12.3976608,20.1497076 C12.9216374,19.4807018 13.4362573,18.8163743 13.9555556,18.1473684 C14.3017544,17.6935673 14.6526316,17.2397661 14.9988304,16.7859649 C15.5976608,16 16.2011696,15.2093567 16.7859649,14.4093567 C17.3520468,13.6374269 17.9181287,12.8654971 18.3111111,11.9859649 C18.5263158,11.4339181 18.6807018,10.8631579 18.774269,10.2783626 Z M15.8923977,9.02456139 C15.9111111,9.16959063 15.9157895,9.31461987 15.9064328,9.46432747 C15.8923977,9.85263157 15.831579,10.2596491 15.6959064,10.6245614 C15.5368421,11.0409357 15.354386,11.3918129 15.0877193,11.7380117 C14.8210526,12.0842105 14.5309942,12.3461988 14.1754386,12.6035088 C13.8666667,12.8233918 13.5017544,12.9824561 13.1461988,13.0994152 C12.8233918,13.2023392 12.477193,13.2538012 12.1356725,13.2678363 C12.0888889,13.2725146 12.0421053,13.277193 11.9953216,13.277193 C11.7473684,13.277193 11.5040936,13.2397661 11.2561403,13.2023392 C10.877193,13.1461988 10.5076023,12.9964912 10.1660819,12.8233918 C9.83391812,12.6596491 9.52514619,12.425731 9.26315788,12.1684211 C8.99649122,11.9111111 8.76257309,11.6070175 8.58479531,11.2842105 C8.40233917,10.9520468 8.2479532,10.5824561 8.17777776,10.2081871 C8.0982456,9.82456139 8.05614033,9.42222221 8.10292396,9.03391812 C8.1356725,8.79532162 8.16374267,8.54736841 8.22923975,8.31345028 C8.29473683,8.08421051 8.39298244,7.85964911 8.49122806,7.64444443 C8.65029238,7.29824559 8.87953215,6.98947366 9.13216373,6.70877191 C9.38011695,6.43742688 9.68421052,6.19883039 9.99766081,6.00701752 C10.3157895,5.81052629 10.6807017,5.65614032 11.0409357,5.5719298 C11.4245614,5.48304091 11.8362573,5.43157892 12.2292398,5.46432746 C12.6128655,5.497076 12.9964912,5.55789471 13.3567252,5.70292395 C13.5812866,5.79181284 13.8011696,5.88070173 14.0023392,6.00233916 C14.1988304,6.12397658 14.3906433,6.27368419 14.5684211,6.41871343 C14.8631579,6.65730992 15.1017544,6.96140349 15.3076024,7.27485378 C15.5087719,7.58830408 15.6631579,7.94853799 15.7660819,8.30409355 C15.8362573,8.53801168 15.8596491,8.78128654 15.8923977,9.02456139 Z M11.1578947,8.25730993 C11.0690058,8.33216373 10.9847953,8.41637425 10.9099415,8.50526314 C10.8397661,8.60350876 10.7789474,8.70643273 10.7274854,8.81403507 C10.6853801,8.93099414 10.6526316,9.0479532 10.6292398,9.16959063 C10.619883,9.29122806 10.619883,9.41286549 10.6292398,9.53450291 C10.6526316,9.65614034 10.6853801,9.77309941 10.7274854,9.89005847 C10.7789474,9.99766081 10.8397661,10.1005848 10.9052632,10.1988304 C10.980117,10.2877193 11.0643275,10.3672515 11.1532164,10.4467836 C11.251462,10.5169591 11.354386,10.5777778 11.4619883,10.6292398 C11.5789474,10.671345 11.6959064,10.7040936 11.8175439,10.7274854 C11.8783626,10.7321637 11.9391813,10.7321637 12,10.7321637 C12.0608187,10.7321637 12.1216374,10.7321637 12.1824561,10.7274854 C12.3040936,10.7040936 12.4210526,10.671345 12.5380117,10.6292398 C12.645614,10.5777778 12.748538,10.5169591 12.8467836,10.451462 C12.9356725,10.3766082 13.0152047,10.2923977 13.0947368,10.2035088 C13.1649123,10.1052632 13.225731,10.0023392 13.277193,9.89473683 C13.3192983,9.77777777 13.3520468,9.6608187 13.3754386,9.53918128 C13.3847953,9.41754385 13.3847953,9.29590642 13.3754386,9.17426899 C13.3520468,9.05263157 13.3192983,8.9356725 13.277193,8.81871344 C13.225731,8.7111111 13.1649123,8.60818712 13.0994152,8.50994151 C13.0245614,8.42105262 12.9403509,8.34152045 12.851462,8.26198829 C12.7532164,8.19181285 12.6502924,8.13099414 12.5426901,8.07953215 C12.425731,8.03742688 12.3087719,8.00467835 12.1871345,7.98128653 C12.0654971,7.97192981 11.9438596,7.97192981 11.8222222,7.98128653 C11.7005848,8.00467835 11.5836257,8.03742688 11.4666667,8.07953215 C11.3590643,8.13099414 11.2561403,8.19181285 11.1578947,8.25730993 Z" id="path-1"></path>
    </defs>
    <g id="Icons-Grey" stroke="none" stroke-width="1" fill="none" fill-rule="evenodd">
        <g id="icons-/-grey-/-pin" transform="translate(-2.000000, 0.000000)">
            <mask id="mask-2" fill="white">
                <use xlink:href="#path-1"></use>
            </mask>
            <use id="pin" fill="#B1B3B4" fill-rule="nonzero" xlink:href="#path-1"></use>
        </g>
    </g>
</svg>