<?xml version="1.0" encoding="UTF-8"?>
<svg width="89px" height="90px" viewBox="0 0 89 90" version="1.1" xmlns="http://www.w3.org/2000/svg" xmlns:xlink="http://www.w3.org/1999/xlink">
    <!-- Generator: Sketch 52.2 (67145) - http://www.bohemiancoding.com/sketch -->
    <title>r</title>
    <desc>Created with Sketch.</desc>
    <g id="riva" stroke="none" stroke-width="1" fill="none" fill-rule="evenodd">
        <g id="Desktop" transform="translate(-298.000000, -312.000000)" fill="#AE2828">
            <path d="M325.5,360.534299 L325.5,393 L320.5,393 L320.5,352.812957 L320.462687,352.755335 L320.462687,370.90625 L320.462687,387.736607 C320.462687,394.209821 315.630597,399 309.231343,399 C302.83209,399 298,394.209821 298,387.736607 L298,323.263393 C298,316.790179 302.83209,312 309.36194,312 L331.824627,312 C351.544776,312 365.126866,323.910714 365.126866,341.258929 C365.126866,350.96875 360.817164,359.125 353.503731,364.433036 L364.865672,380.357143 C366.955224,383.334821 368,386.183036 368,388.901786 C368,394.339286 363.037313,399 357.421642,399 C353.242537,399 349.847015,397.1875 347.365672,393.433036 L332.216418,370.90625 C330.203087,367.797127 328.189756,364.688004 326.176425,361.57888 L325.5,360.534299 Z M386.819146,398.709939 L382.704576,401.590992 L357,364.881053 L361.11457,362 L386.819146,398.709939 Z" id="r"></path>
        </g>
    </g>
</svg>