<?xml version="1.0" encoding="UTF-8"?>
<svg width="24px" height="24px" viewBox="0 0 24 24" version="1.1" xmlns="http://www.w3.org/2000/svg" xmlns:xlink="http://www.w3.org/1999/xlink">
    <!-- Generator: Sketch 52.2 (67145) - http://www.bohemiancoding.com/sketch -->
    <title>whatsapp</title>
    <desc>Created with Sketch.</desc>
    <defs>
        <path d="M0.0562499502,24.0000001 L1.74374996,17.8359375 C0.703124953,16.03125 0.154687451,13.9875 0.154687451,11.8921875 C0.159374951,5.33437497 5.49374997,-5.00000006e-08 12.0515625,-5.00000006e-08 C15.234375,-5.00000006e-08 18.2203125,1.24218746 20.465625,3.48749996 C22.7109375,5.73749997 23.9484375,8.72343749 23.94375,11.9015625 C23.9390625,18.459375 18.6046875,23.79375 12.0515625,23.79375 C10.059375,23.79375 8.09999998,23.2921875 6.36562498,22.3453125 C6.36093748,22.3453125 0.0562499502,24.0000001 0.0562499502,24.0000001 Z M6.65624998,20.19375 C8.33437498,21.1875 9.93281249,21.7828125 12.046875,21.7875 C17.49375,21.7875 21.9328125,17.353125 21.9375,11.9015625 C21.9375,6.44062498 17.521875,2.01093746 12.05625,2.01093746 C6.60468748,2.01093746 2.17031246,6.44531248 2.16562496,11.896875 C2.16562496,14.1234375 2.81718746,15.7875 3.90937497,17.53125 L2.91093746,21.178125 C2.91093746,21.1734375 6.65624998,20.19375 6.65624998,20.19375 Z M18.0421875,14.728125 C17.9671875,14.60625 17.7703125,14.53125 17.4703125,14.38125 C17.175,14.23125 15.7125,13.5140625 15.440625,13.415625 C15.16875,13.3171875 14.971875,13.265625 14.7703125,13.565625 C14.5734375,13.8609375 14.0015625,14.53125 13.828125,14.7328125 C13.6546875,14.934375 13.48125,14.9578125 13.1859375,14.8078125 C12.890625,14.6578125 11.9296875,14.34375 10.7953125,13.33125 C9.91406249,12.54375 9.31406249,11.56875 9.14062499,11.2734375 C8.96718749,10.978125 9.12187499,10.8140625 9.27187499,10.66875 C9.40781249,10.5375 9.56718749,10.321875 9.71718749,10.1484375 C9.86718749,9.97499999 9.91874999,9.85312499 10.0171875,9.65156249 C10.115625,9.45468749 10.06875,9.28124999 9.99374999,9.13124999 C9.91874999,8.98124999 9.32343749,7.51874998 9.07968749,6.92343748 C8.83593749,6.34218748 8.59218749,6.42187498 8.40937499,6.41249998 L7.83749998,6.40312498 C7.64062498,6.40312498 7.31718748,6.47812498 7.04531248,6.77343748 C6.77343748,7.07343748 6.00468748,7.79062498 6.00468748,9.25312499 C6.00468748,10.715625 7.06874998,12.13125 7.21874998,12.328125 C7.36874998,12.525 9.31406249,15.5296875 12.2953125,16.8140625 C13.003125,17.11875 13.55625,17.3015625 13.9875,17.4421875 C14.7,17.6671875 15.346875,17.634375 15.8578125,17.559375 C16.4296875,17.475 17.615625,16.8421875 17.8640625,16.1484375 C18.1171875,15.45 18.1171875,14.8546875 18.0421875,14.728125 Z" id="path-1"></path>
    </defs>
    <g id="Icons-White" stroke="none" stroke-width="1" fill="none" fill-rule="evenodd">
        <g id="icons-/-white-/-whatsapp">
            <mask id="mask-2" fill="white">
                <use xlink:href="#path-1"></use>
            </mask>
            <use id="whatsapp" fill="#FFFFFF" fill-rule="nonzero" xlink:href="#path-1"></use>
        </g>
    </g>
</svg>