<?xml version="1.0" encoding="utf-8"?>
<!-- Generator: Adobe Illustrator 22.1.0, SVG Export Plug-In . SVG Version: 6.00 Build 0)  -->
<svg version="1.1" id="Layer_7" xmlns="http://www.w3.org/2000/svg" xmlns:xlink="http://www.w3.org/1999/xlink" x="0px" y="0px"
	 viewBox="0 0 512 512" style="enable-background:new 0 0 512 512;" xml:space="preserve">
<style type="text/css">
	.st0{fill:#E5C7AE;}
	.st1{fill:#513431;}
</style>
<g>
	<ellipse class="st0" cx="254.9" cy="243.4" rx="150.3" ry="186.8"/>
	<path class="st1" d="M440.5,57.8c8.7,137.5-101.2,165.9-193.6,83.7c-53.6-47.7-133.8,138.8-164,82.6C37.2,138.8,129,24.2,261.7,27
		C340.3,28.7,380.4,87.4,440.5,57.8z"/>
	<ellipse class="st0" cx="393.8" cy="260.5" rx="31.9" ry="46.1"/>
	<ellipse class="st0" cx="112.5" cy="260.5" rx="31.9" ry="46.1"/>
	<path class="st1" d="M404.1,304.9c10.4,102.6-72.9,184.6-150.3,179.9c-77.4-4.6-160.6-77.3-150.3-179.9c4-39.9,1.6-176.6,4.7-151.5
		c2.5,20.1,27.9,151.8,64.4,168.9c25.9,12.2,47.6,69,81.2,69c29.6,0,50.7-50.8,73.4-62.2c38.7-19.3,70.3-153.7,72.2-175.8
		C401.5,128.7,400.1,265.6,404.1,304.9z"/>
	<path class="st1" d="M256.6,327.6c28.7,0,55.6,7.6,79,15.3c41.3,13.7,61.3-5.4,28.3-25.3c-28.5-17.1-66-27.6-107.2-27.6
		c-43.5,0-82.9,11.6-111.9,30.5c-30.3,19.8-13.4,40.5,22.4,26.2C192.7,336.6,223.5,327.6,256.6,327.6z"/>
	<g>
		<ellipse id="eye_4_" cx="189.1" cy="230.6" rx="12.5" ry="27.1"/>
		<ellipse id="eye_1_" cx="315.5" cy="230.6" rx="12.5" ry="27.1"/>
	</g>
</g>
</svg>
