<?xml version="1.0" encoding="utf-8"?>
<!-- Generator: Adobe Illustrator 22.1.0, SVG Export Plug-In . SVG Version: 6.00 Build 0)  -->
<svg version="1.1" id="Layer_1" xmlns="http://www.w3.org/2000/svg" xmlns:xlink="http://www.w3.org/1999/xlink" x="0px" y="0px"
	 viewBox="0 0 600 512" style="enable-background:new 0 0 600 512;" xml:space="preserve">
<style type="text/css">
	.st0{fill:#FFFFFF;}
	.st1{fill:#B3C4C4;}
	.st2{fill:#D0E1E2;}
	.st3{fill:#111011;}
	.st4{fill:#E5C7AE;}
	.st5{fill:#EA6A0C;}
</style>
<g id="vespa_1_">
	<g id="wheels">
		<g id="wheels_1_">
			<circle cx="152.8" cy="439.3" r="61.6"/>
			<circle class="st0" cx="152.8" cy="439.3" r="31.7"/>
			<ellipse transform="matrix(0.7071 -0.7071 0.7071 0.7071 -161.312 489.1446)" cx="509.8" cy="439.3" rx="61.6" ry="61.6"/>
			<circle class="st0" cx="509.8" cy="439.3" r="31.7"/>
		</g>
	</g>
	<g id="vespa">
		<path d="M393.1,214.9l-22.3,15.9c-2.7,1.9-6.6,1.3-8.5-1.4l-1.2-1.7c-1.9-2.7-1.3-6.6,1.4-8.5l22.3-15.9c2.7-1.9,6.6-1.3,8.5,1.4
			l1.2,1.7C396.5,209.1,395.8,212.9,393.1,214.9z"/>
		<path class="st1" d="M486.1,328.3c52.7,0.4,83,28.7,92.3,82.9H459.1L486.1,328.3z"/>
		<path class="st2" d="M266.5,310.6l-154.1,0.9C71.1,339.1,55,382.8,55.6,436.9h149.3l240.5,0.3c26.7-0.6,82.2-4.4,54.1-76.2
			c-27.8-93.9-102.3-140.9-44.7-148.2c10.8,0.6,11.4-44.1-0.4-51.7c-67.8-1-78.4,35.2-44.4,107.3c-11.8,7.5-18.7,16.3-13.9,28.1
			c43.6,49.6,69.7,105.2,19,126.5l-149.8,1.3C232.8,410.2,231.8,372.9,266.5,310.6z"/>
		<path d="M273.6,311.1H105c-5,0-9.1-4.1-9.1-9.1v-3.1c0-5,4.1-9.1,9.1-9.1h168.6c5,0,9.1,4.1,9.1,9.1v3.1
			C282.8,307,278.6,311.1,273.6,311.1z"/>
		<path class="st1" d="M390.9,207.3l2,8.3c12.3-11.6,33.7-11.3,40.7-7.3C430.7,200.4,406.8,197.3,390.9,207.3z"/>
	</g>
</g>
<g id="box_1_">
	<path id="box" class="st3" d="M163.3,289.4H30.7c-6.6,0-12-5.4-12-12v-93.9c0-6.6,5.4-12,12-12h132.5c6.6,0,12,5.4,12,12v93.9
		C175.3,284,169.9,289.4,163.3,289.4z"/>
</g>
<g id="head">
	<path id="face" class="st4" d="M302,101c-1.2-4.5,0-7.5,3-9.5c2.5-2.5,4.1-5.1,2.6-8.2c3.9,0.4,7.1-0.5,9.2-2.8
		c-7.2-8.7-13.8-17.7-9.8-30.3c-6.1-23.7-19.1-35-39.5-32.7c-24.4,9.2-46.3,20.8-17.2,84c2.5,8.5,2.5,15.7-3.7,20.3l20.9,7.1
		C263.7,101.6,302.9,116.3,302,101z"/>
	<g id="hat">
		<path d="M312.4,48.2c-2.9-20-18.7-36.1-39.1-34c-27.6,2.9-39,17.1-39.6,39.6c0,1,0,2,0,3C259.7,54.5,285.9,51.7,312.4,48.2z"/>
		<path d="M325.5,47.7c-36,5.4-70.7,10.3-93.5,11.7v-3.2c24.5-1.6,58.2-6.3,93.5-11.7V47.7z"/>
	</g>
	<ellipse id="eye" cx="298.4" cy="66.6" rx="1.7" ry="3.7"/>
	<path id="hair" class="st5" d="M285.8,52.9l-52.1,6.2c4.5,21.6,10.1,39,18.5,45.6c7.3-0.6,15-8.6,23.2-27.5
		c-8.6-5.9-5.4-25.9,4.9-11.4L285.8,52.9z"/>
</g>
<g id="body">
	<path class="st1" d="M274.5,289.4l-57.5,0.7c-24.2-8.8-31.2-25-27.4-45.7l59.6-0.8c99.2,14.3,138.6,66.2,122.2,153.3l-29.2-0.3
		C354,334,340.7,291,274.5,289.4z"/>
	<path d="M402.7,402.3c3.7,4.9,3.1,9.7-0.1,14.6l-64.9,0.3c0.6-8.2-0.3-17.5,4.6-20.7l29.2,0.3C377.6,405,400.4,394.7,402.7,402.3z"
		/>
	<path class="st0" d="M262.7,181.7c4.3-1.9,21.8-18.3,21.8-18.3c-2.5-12.5-5.8-24.2-12.3-32.2c-33.3-37-78.7,15.7-82.5,113.1h60.4
		C249.4,244.2,254.2,163.2,262.7,181.7z"/>
	<path class="st4" d="M363.3,195c-32.9,12.9-60.2,4.6-80.8-29.8l-15.9,14.6c27.3,38.6,61.9,49.7,104.5,30.8L363.3,195z"/>
	<path class="st4" d="M392.9,220.1c-12.9,0.4-5.9-13.5-11.6-12.6c-2.9,0-6.6,0.9-10.8,2.6l-5.6-11.7c8-4,16.8-6.4,27.3-5.8
		L392.9,220.1z"/>
	<path d="M363.3,195c-1.1,0.4-2.2,0.8-3.3,1.2c2.7,7.9,4.2,11.4,7.1,16.1c1.3-0.5,2.6-1.1,4-1.7L363.3,195z"/>
</g>
</svg>
