<?xml version="1.0" encoding="utf-8"?>
<!-- Generator: Adobe Illustrator 22.1.0, SVG Export Plug-In . SVG Version: 6.00 Build 0)  -->
<svg version="1.1" id="cell" xmlns="http://www.w3.org/2000/svg" xmlns:xlink="http://www.w3.org/1999/xlink" x="0px" y="0px"
	 viewBox="0 0 512 512" style="enable-background:new 0 0 512 512;" xml:space="preserve">
<style type="text/css">
	.st0{fill:#D0E1E2;}
	.st1{fill:#E5C7AE;}
</style>
<g id="phone">
	<path d="M351.6,320.1L233,275.8c-6.2-2.3-9.3-9.3-7-15.4L312.5,29c2.3-6.2,9.3-9.3,15.4-7l118.5,44.4c6.2,2.3,9.3,9.3,7,15.4
		L367,313.1C364.7,319.3,357.7,322.4,351.6,320.1z"/>
	<path class="st0" d="M357.2,292.7l-110.5-41.4c-3.7-1.4-5.7-5.6-4.3-9.4l76.6-204.8c1.4-3.7,5.6-5.7,9.4-4.3L439,74.4
		c3.7,1.4,5.7,5.6,4.3,9.4l-76.6,204.8C365.2,292.2,361,294.1,357.2,292.7z"/>
</g>
<g id="hand_2_">
	<path class="st1" d="M290.8,185.4c27.8-19.7,38.1-15.6,41-1.7c-0.8,17.2-26.6,29.3-45,62.3c-17.6,31.5-15.7,88-71,93.4l-68.7-28
		c42.3-16.9,25.9-107.2,39.3-144.7c10.2-19.9,47.8-30.5,89.7-39.7l-14.7,38c-6.7,0.1-14.4,1.9-24.3,8c-8.8,7.4-12.7,14.3-15,21
		c3,9.6,5,17.1,6.3,23c9.8,8,16.5,10.5,21.7,10.3C259.2,229.1,270.1,204.1,290.8,185.4z"/>
	<path class="st1" d="M260.5,167.4c-18,2.4-29.3,11.9-36.3,26c8.4-7.7,20.4-18,33.7-18.8L260.5,167.4z"/>
</g>
<path id="arm_2_" d="M232.5,351.4c-24,41.2-44.5,86.5-61.6,135.7L51.4,448.8c32.5-67.7,69.4-118.9,107.8-164.6
	C187.5,308.6,214.6,332.4,232.5,351.4z"/>
</svg>
