<?xml version="1.0" encoding="utf-8"?>
<!-- Generator: Adobe Illustrator 22.1.0, SVG Export Plug-In . SVG Version: 6.00 Build 0)  -->
<svg version="1.1" xmlns="http://www.w3.org/2000/svg" xmlns:xlink="http://www.w3.org/1999/xlink" x="0px" y="0px"
	 viewBox="0 0 671.3 310" style="enable-background:new 0 0 671.3 310;" xml:space="preserve">
<style type="text/css">
	.st0{fill:#D0E1E2;}
	.st1{fill:#E5C7AE;}
</style>
<g id="Layer_1">
</g>
<g id="plate">
	<ellipse class="st0" cx="388.1" cy="55.4" rx="265.5" ry="36.4"/>
	<path class="st0" d="M388.1,96.8c-77.1,0-146.5-4.5-195-11.7c6.7,13.7,91.5,24.6,195.1,24.6c103.6,0,188.4-10.9,195.1-24.6
		C534.7,92.3,465.3,96.8,388.1,96.8z"/>
</g>
<g id="Layer_3">
	<g id="right">
		<g id="hand_1_">
			<path class="st1" d="M446,112.4c13.3-1.3,23.3-1.4,32.3-1c-47.5,58.8-104.4,110.9-226.5,116.7L237.7,173l16.1-4.2
				c-6.5-26.5,40.4-36.5,27.6-60.1c6.9,1,16.9,2.3,28.7,3.7C339.1,178.7,392.7,160.4,446,112.4z"/>
			<path class="st1" d="M377.4,148.4l-19.7,2.6c16.2-14.7,31-27.6,43-36.8c6.4-1.4,10.8-1.6,12.5-0.3
				C400.1,128.4,387,143.2,377.4,148.4z"/>
			<path class="st1" d="M407.1,138.3c-7.7,4.3-15.1,8.3-16,5.2c8.2-10.6,17.7-20.6,29.6-29.7l18,0
				C430.6,122.2,420.4,130.4,407.1,138.3z"/>
		</g>
		<path id="arm" d="M16.7,167.7c72.6,8.8,145.1,12.1,217.3-1.8c10.1,30.3,19.2,59.4,19.6,78.1c0,0-116.2,46-236.9,46
			C16.7,274.6,16.7,167.7,16.7,167.7z"/>
	</g>
</g>
</svg>
