<?xml version="1.0" encoding="utf-8"?>
<!-- Generator: Adobe Illustrator 22.1.0, SVG Export Plug-In . SVG Version: 6.00 Build 0)  -->
<svg version="1.1" xmlns="http://www.w3.org/2000/svg" xmlns:xlink="http://www.w3.org/1999/xlink" x="0px" y="0px"
	 viewBox="0 0 626.4 505.4" style="enable-background:new 0 0 626.4 505.4;" xml:space="preserve">
<style type="text/css">
	.st0{fill:#E5C7AE;}
	.st1{fill:#D0E1E2;}
</style>
<g id="Layer_1">
</g>
<g id="Layer_3">
	<g id="left">
		<path id="arm_1_" d="M167.2,166.9c-46.5-10.5-95.9-16.2-148-17.7l0.5-125.5c74.3,10.5,134.3,30.2,189.5,53
			C194.4,111.1,179.9,144.1,167.2,166.9z"/>
		<g id="hand">
			<path class="st0" d="M309.7,105c-28.7-9.2-62.9-17.1-102.5-23.7l-30,69.9c44.8,2.4,28,63,91,87.3c33.3,7.8,64-1.7,84.3,11.4
				c6-0.7,11-1.8,7.2-6.8c-9-34.2-93.5-18.2-78-61c13.6-23.3,28.1-28.7,43.1-23.3c54.2,12.4,16,51,42.9,67.2l13.6,8.3
				c4.3-24.9,5.5-48.4,1.3-69.5C362,136.9,337.6,117,309.7,105z"/>
			<path class="st0" d="M330.8,198c-7.5,7.1-17.3,11.3-29.4,12.4c-7.1-2.4-12.2-5.6-14.2-9.9c12-9.6,18.1-4.4,25.5-12.4
				c7.3-9.5,0.7-14.9,5.1-26.9l17,2.6C336,174.8,335.1,186.2,330.8,198z"/>
			<path class="st0" d="M310.7,185.2c-7.2,6.4-25.8,12.6-25.5,12.9c-3.7-2.2-1.7-9.8-0.4-11.1c8.4-5.7,9.8-3.1,14.5-8.1
				c4.6-6,1.6-5.9,4.4-13.4l8.5-3.5C315.5,166.2,314.6,176.5,310.7,185.2z"/>
			<path class="st0" d="M297,177.4c-2.9,3.7-10.7,3.7-10.7,3.7c1.1-5.2,5.2-10.1,13.3-14.3C299.5,166.8,299.9,173.6,297,177.4z"/>
		</g>
	</g>
</g>
<g id="cover_plate">
	<g id="cover_plate_1_">
		<path class="st1" d="M537.2,419.7c-6.4-139.9-64.2-169.6-160-169.5c2.8-23.9-12.2-27.9-19.7-20.8c-1.6,1.5,8.8,12.9,2.9,22.6
			c-71.7,18-162.1,33-132.6,203.4C329.3,455.9,433.6,443.3,537.2,419.7z"/>
		<path class="st1" d="M541.7,423.1c-104.6,25.5-210.8,37.9-318.6,36.5c-39,10.5-58.4-0.1-55.3,8.1c9,35.4,433.3-10.6,433.7-46.3
			C606.6,406.7,579,423.2,541.7,423.1z"/>
	</g>
</g>
</svg>
