<?xml version="1.0" encoding="utf-8"?>
<!-- Generator: Adobe Illustrator 22.1.0, SVG Export Plug-In . SVG Version: 6.00 Build 0)  -->
<svg version="1.1" xmlns="http://www.w3.org/2000/svg" xmlns:xlink="http://www.w3.org/1999/xlink" x="0px" y="0px"
	 viewBox="0 0 944 1334" style="enable-background:new 0 0 944 1334;" xml:space="preserve">
<style type="text/css">
	.st0{display:none;}
	.st1{display:inline;fill:#E1007A;}
	.st2{fill:#D0E1E2;}
	.st3{fill:#E5C7AE;}
	.st4{display:none;fill:#D0E1E2;}
	.st5{display:inline;}
</style>
<g id="Layer_4" class="st0">
	<rect x="-136.9" y="-96.4" class="st1" width="1183.4" height="1468.4"/>
</g>
<g id="plate">
	<ellipse class="st2" cx="371.5" cy="779.4" rx="265.5" ry="36.4"/>
	<path class="st2" d="M371.5,820.8c-77.1,0-146.5-4.5-195-11.7c6.7,13.7,91.5,24.6,195.1,24.6c103.6,0,188.4-10.9,195.1-24.6
		C518.1,816.3,448.6,820.8,371.5,820.8z"/>
</g>
<g id="Layer_3">
	<g id="right">
		<g id="hand_1_">
			<path class="st3" d="M429.3,836.4c13.3-1.3,23.3-1.4,32.3-1c-47.5,58.8-104.4,110.9-226.5,116.7L221,897l16.1-4.2
				c-6.5-26.5,40.4-36.5,27.6-60.1c6.9,1,16.9,2.3,28.7,3.7C322.5,902.7,376,884.4,429.3,836.4z"/>
			<path class="st3" d="M360.7,872.4L341,875c16.2-14.7,31-27.6,43-36.8c6.4-1.4,10.8-1.6,12.5-0.3
				C383.5,852.4,370.3,867.2,360.7,872.4z"/>
			<path class="st3" d="M390.4,862.3c-7.7,4.3-15.1,8.3-16,5.2c8.2-10.6,17.7-20.6,29.6-29.7l18,0
				C414,846.2,403.8,854.4,390.4,862.3z"/>
		</g>
		<path id="arm" d="M0,891.7c72.6,8.8,145.1,12.1,217.3-1.8c10.1,30.3,19.2,59.4,19.6,78.1c0,0-116.2,46-236.9,46
			C0,998.6,0,891.7,0,891.7z"/>
	</g>
	<g id="left">
		<path id="arm_1_" d="M148,162.7C101.5,152.2,52.1,146.4,0,145L0.5,19.5C74.8,30,134.8,49.7,190,72.5
			C175.2,106.9,160.7,139.9,148,162.7z"/>
		<g id="hand">
			<path class="st3" d="M290.5,100.8c-28.7-9.2-62.9-17.1-102.5-23.7L158,147c44.8,2.4,28,63,91,87.3c33.3,7.8,64-1.7,84.3,11.4
				c6-0.7,11-1.8,7.2-6.8c-9-34.2-93.5-18.2-78-61c13.6-23.3,28.1-28.7,43.1-23.3c54.2,12.4,16,51,42.9,67.2l13.6,8.3
				c4.3-24.9,5.5-48.4,1.3-69.5C342.8,132.6,318.4,112.8,290.5,100.8z"/>
			<path class="st3" d="M311.6,193.7c-7.5,7.1-17.3,11.3-29.4,12.4c-7.1-2.4-12.2-5.6-14.2-9.9c12-9.6,18.1-4.4,25.5-12.4
				c7.3-9.5,0.7-14.9,5.1-26.9l17,2.6C316.7,170.6,315.8,182,311.6,193.7z"/>
			<path class="st3" d="M291.5,181c-7.2,6.4-25.8,12.6-25.5,12.9c-3.7-2.2-1.7-9.8-0.4-11.1c8.4-5.7,9.8-3.1,14.5-8.1
				c4.6-6,1.6-5.9,4.4-13.4l8.5-3.5C296.2,162,295.4,172.3,291.5,181z"/>
			<path class="st3" d="M277.7,173.1c-2.9,3.7-10.7,3.7-10.7,3.7c1.1-5.2,5.2-10.1,13.3-14.3C280.3,162.5,280.7,169.4,277.7,173.1z"
				/>
		</g>
	</g>
	<path class="st4" d="M582.2,437.2c-0.4,35.7-424.7,81.7-433.7,46.3c-3.2-8.6,18-18.4,60.4-29.5C178,281,269,265.9,341.1,247.8
		c6-9.8-4.4-21.2-2.9-22.6c7.6-7.1,22.6-3.1,19.7,20.8c96.5-0.1,154.5,30,160.1,172.9C557.6,418.7,587.6,421.9,582.2,437.2z"/>
</g>
<g id="cover_plate">
	<g id="cover_plate_1_">
		<path class="st2" d="M517.9,415.5c-6.4-139.9-64.2-169.6-160-169.5c2.8-23.9-12.2-27.9-19.7-20.8c-1.6,1.5,8.8,12.9,2.9,22.6
			c-71.7,18-162.1,33-132.6,203.4C310.1,451.6,414.4,439,517.9,415.5z"/>
		<path class="st2" d="M522.5,418.9c-104.6,25.5-210.8,37.9-318.6,36.5c-39,10.5-58.4-0.1-55.3,8.1c9,35.4,433.3-10.6,433.7-46.3
			C587.4,402.5,559.8,419,522.5,418.9z"/>
	</g>
</g>
<g id="cell" class="st0">
	<g id="phone" class="st5">
		<path d="M764.1,430.7l-118.5-44.4c-6.2-2.3-9.3-9.3-7-15.4l86.6-231.3c2.3-6.2,9.3-9.3,15.4-7l118.5,44.4c6.2,2.3,9.3,9.3,7,15.4
			l-86.6,231.3C777.2,429.8,770.3,433,764.1,430.7z"/>
		<path class="st2" d="M769.8,403.3l-110.5-41.4c-3.7-1.4-5.7-5.6-4.3-9.4l76.6-204.8c1.4-3.7,5.6-5.7,9.4-4.3l110.5,41.4
			c3.7,1.4,5.7,5.6,4.3,9.4L779.2,399C777.8,402.8,773.5,404.7,769.8,403.3z"/>
	</g>
	<g id="hand_2_" class="st5">
		<path class="st3" d="M703.3,296c27.8-19.7,38.1-15.6,41-1.7c-0.8,17.2-26.6,29.3-45,62.3c-17.6,31.5-15.7,88-71,93.4l-68.7-28
			c42.3-16.9,25.9-107.2,39.3-144.7c10.2-19.9,47.8-30.5,89.7-39.7l-14.7,38c-6.7,0.1-14.4,1.9-24.3,8c-8.8,7.4-12.7,14.3-15,21
			c3,9.6,5,17.1,6.3,23c9.8,8,16.5,10.5,21.7,10.3C671.7,339.6,682.7,314.7,703.3,296z"/>
		<path class="st3" d="M673,278c-18,2.4-29.3,11.9-36.3,26c8.4-7.7,20.4-18,33.7-18.8L673,278z"/>
	</g>
	<path id="arm_2_" class="st5" d="M645,461.9c-24,41.2-44.5,86.5-61.6,135.7L464,559.3c32.5-67.7,69.4-118.9,107.8-164.6
		C600.1,419.1,627.2,443,645,461.9z"/>
</g>
</svg>
